<?xml version="1.0" encoding="utf-8"?>
<!-- Generator: Adobe Illustrator 27.5.0, SVG Export Plug-In . SVG Version: 6.00 Build 0)  -->
<svg version="1.1" id="Layer_1" xmlns="http://www.w3.org/2000/svg" xmlns:xlink="http://www.w3.org/1999/xlink" x="0px" y="0px"
	 viewBox="0 0 233.803 278.854" style="enable-background:new 0 0 233.803 278.854;" xml:space="preserve">
<g>
	<g>
		<path style="fill:#FFFFFF;" d="M202.587,162.628c2.602,1.525,4.673,2.826,6.177,3.854c-0.884,2.319-1.991,5.056-2.761,6.959
			c-1.475,3.65-2.827,7.001-3.976,10.075c0.652-4.214,0.979-8.491,0.979-12.816C203.007,167.953,202.867,165.257,202.587,162.628z
			 M198.279,198.405c-0.024,1.165,0.065,2.258,0.281,3.285c-0.357-0.35-0.725-0.706-1.101-1.068
			C197.744,199.887,198.017,199.148,198.279,198.405z M155.748,28.594c1.129,2.623,1.225,5.632-0.037,7.084
			c-0.532,0.611-1.52,1.006-2.694,1.083c-1.02,0.063-2.037-0.122-2.828-0.49C153.183,34.879,155.354,32.003,155.748,28.594z
			 M79.806,36.762c-1.186-0.078-2.172-0.473-2.702-1.081c-1.265-1.454-1.171-4.463-0.042-7.085c0.396,3.408,2.565,6.283,5.559,7.674
			c-0.613,0.287-1.439,0.503-2.425,0.503C80.063,36.772,79.93,36.769,79.806,36.762z M14.601,181.043
			c1.287,3.182,3.926,9.701,5.367,14.09c-2.406,1.567-4.939,3.12-5.898,3.695c-2.325,1.395-3.968,3.61-4.623,6.235
			c-0.658,2.631-0.252,5.36,1.142,7.679c1.823,3.04,5.157,4.928,8.701,4.928c1.835,0,3.643-0.504,5.233-1.459
			c1.277-0.767,4.489-2.722,7.563-4.768c-4.751,6.431-5.056,10.467-3.667,14.337c1.119,3.122,3.748,6.811,9.148,14.242
			c2.173,2.994,6.174,8.504,8.572,12.318c-1.828,1.968-3.788,3.971-4.831,5.013c-3.957,3.949-3.964,10.384-0.013,14.344
			c1.917,1.918,4.466,2.976,7.178,2.976c2.703,0,5.246-1.053,7.118-2.92c0.065-0.064,7.038-7,10.084-11.02
			c6.131-8.093-0.597-17.354-11.745-32.698c-1.277-1.756-2.975-4.091-4.357-6.074c0.552-0.622,1.249-1.377,2.126-2.286
			c15.738,21.79,40.626,34.623,67.707,34.623c27.266,0,52.251-12.964,67.971-34.971c1.038,1.066,1.842,1.936,2.463,2.634
			c-1.303,1.871-2.895,4.065-4.186,5.843l-0.169,0.233c-11.148,15.345-17.877,24.607-11.746,32.698
			c2.653,3.499,8.315,9.245,10.037,10.973c1.915,1.911,4.458,2.965,7.164,2.965c2.717,0,5.268-1.058,7.18-2.98
			c3.945-3.955,3.94-10.387-0.009-14.337c-1.05-1.05-3.015-3.058-4.835-5.016c2.459-3.909,6.6-9.602,8.62-12.381
			c5.363-7.389,7.99-11.077,9.1-14.183c1.385-3.868,1.072-7.911-3.672-14.336c3.08,2.051,6.305,4.012,7.587,4.782
			c1.577,0.946,3.379,1.446,5.211,1.446c3.548,0,6.884-1.89,8.706-4.932c1.391-2.319,1.793-5.045,1.136-7.674
			c-0.659-2.632-2.301-4.847-4.62-6.235c-0.96-0.576-3.492-2.13-5.901-3.698c1.411-4.304,3.976-10.648,5.368-14.092
			c3.327-8.235,5.078-12.686,5.402-15.965c0.659-6.558-1.725-13.403-37.186-30.497c-1.025-6.874-2.988-13.501-5.855-19.778
			c10.252-5.454,17.127-10.019,20.947-13.903c4.303-4.376,4.628-7.673,4.337-10.591c-0.329-3.287-2.081-7.734-5.428-16.016
			c-1.385-3.432-3.938-9.754-5.343-14.04c2.41-1.571,4.943-3.122,5.902-3.696c4.795-2.876,6.355-9.118,3.478-13.917
			c-1.806-3.008-5.175-4.876-8.794-4.876c-1.821,0-3.589,0.481-5.171,1.428c-2.026,1.222-8.905,5.424-12.342,8.191
			c-7.903,6.369-3.615,16.981,3.489,34.56l0.061,0.151c0.838,2.077,1.874,4.644,2.698,6.809c-2.923,1.999-7.959,5.018-14.802,8.653
			c-2.679-3.157-5.626-6.096-8.803-8.78c-0.701-3.757-1.842-7.408-3.403-10.899c0.782-4.829-1.738-10.903-6.994-16.491
			c-5.422-5.764-11.945-8.825-16.92-7.854c-3.949-1.857-8.085-3.159-12.357-3.895c0.068-0.439,0.137-0.882,0.206-1.329
			c0.488-3.137,0.993-6.383,1.941-9.202c1.552-4.619,3.814-8.59,6.551-11.582c0.001,0.229,0.012,0.458,0.031,0.688
			c-0.126,0.41-0.229,0.826-0.308,1.249c-1.064,5.628,1.852,12.146,5.288,15.199c2.894,2.567,6.961,4.04,11.161,4.04
			c0.393,0,0.788-0.014,1.175-0.038c4.4-0.282,8.281-2.11,10.931-5.152c6.434-7.401,4.098-19.021-1.758-25.541
			c-4.216-4.691-10.368-7.383-16.879-7.383c-4.542,0-8.883,1.307-12.549,3.778c-6.591,4.441-11.897,11.879-14.943,20.943
			c-1.083,3.224-1.686,6.522-2.17,9.56c-0.498-3.127-1.083-6.334-2.167-9.562c-3.051-9.066-8.358-16.504-14.944-20.94
			c-3.668-2.474-8.007-3.781-12.551-3.781c-6.511,0-12.662,2.692-16.877,7.386c-5.855,6.521-8.194,18.141-1.756,25.544
			c2.646,3.038,6.527,4.866,10.921,5.147c4.606,0.294,9.173-1.191,12.339-3.999c3.437-3.048,6.357-9.565,5.294-15.2
			c-0.08-0.426-0.184-0.845-0.31-1.256c0.02-0.229,0.029-0.457,0.03-0.685c2.736,2.991,4.998,6.964,6.552,11.585
			c0.951,2.824,1.455,6.073,1.949,9.254l0.031,0.201c0.125,0.805,0.252,1.621,0.389,2.446c-2.238,0.677-4.429,1.518-6.556,2.514
			c-4.977-0.947-11.465,2.123-16.866,7.866c-5.19,5.517-7.72,11.544-7.007,16.355c-1.594,3.534-2.754,7.231-3.464,11.033
			c-3.1,2.619-5.983,5.485-8.613,8.563c-6.632-3.538-11.529-6.478-14.395-8.436c0.884-2.32,1.992-5.056,2.762-6.958
			c7.103-17.582,11.39-28.195,3.484-34.563c-3.557-2.864-10.92-7.335-12.404-8.229c-1.523-0.907-3.289-1.387-5.107-1.387
			c-3.619,0-6.989,1.869-8.796,4.879c-1.392,2.321-1.796,5.048-1.139,7.676c0.658,2.632,2.301,4.847,4.62,6.235
			c1.032,0.619,3.527,2.149,5.901,3.697c-1.409,4.293-3.968,10.627-5.367,14.094c-3.324,8.224-5.074,12.669-5.404,15.966
			c-0.673,6.712,3.203,12.714,24.801,24.233c-2.972,6.443-4.988,13.263-6.014,20.346c-34.867,16.881-37.198,23.67-36.545,30.188
			C9.529,168.367,11.277,172.813,14.601,181.043z M41.521,201.039c-0.229,0.222-0.455,0.442-0.677,0.659
			c0.12-0.572,0.202-1.166,0.246-1.78C41.231,200.292,41.375,200.666,41.521,201.039z M33.345,173.287
			c-0.838-2.075-1.872-4.638-2.697-6.803c1.378-0.94,3.233-2.114,5.537-3.478c-0.252,2.506-0.378,5.074-0.378,7.692
			c0,3.485,0.213,6.94,0.637,10.355C35.503,178.629,34.458,176.044,33.345,173.287z"/>
		<path style="fill:#F1F1F1;" d="M202.076,162.046c2.602,1.525,4.674,2.826,6.178,3.855c-0.885,2.319-1.991,5.056-2.761,6.958
			c-1.475,3.651-2.827,7.002-3.975,10.075c0.651-4.213,0.979-8.491,0.979-12.816C202.498,167.371,202.357,164.676,202.076,162.046z
			 M197.77,197.824c-0.025,1.164,0.065,2.257,0.281,3.285c-0.357-0.351-0.726-0.707-1.102-1.068
			C197.234,199.305,197.508,198.565,197.77,197.824z M155.238,28.013c1.129,2.623,1.225,5.631-0.038,7.083
			c-0.532,0.611-1.518,1.007-2.693,1.083c-1.02,0.063-2.038-0.122-2.829-0.489C152.673,34.298,154.843,31.422,155.238,28.013z
			 M79.296,36.18c-1.186-0.075-2.173-0.473-2.703-1.081c-1.265-1.454-1.171-4.462-0.042-7.084c0.397,3.408,2.566,6.283,5.56,7.675
			c-0.613,0.286-1.439,0.502-2.426,0.502C79.552,36.191,79.42,36.188,79.296,36.18z M14.09,180.462
			c1.289,3.181,3.927,9.7,5.367,14.089c-2.406,1.568-4.939,3.121-5.898,3.695c-2.324,1.395-3.968,3.61-4.621,6.235
			c-0.659,2.632-0.253,5.36,1.141,7.68c1.823,3.04,5.157,4.929,8.701,4.929c1.834,0,3.645-0.505,5.232-1.459
			c1.278-0.769,4.489-2.724,7.563-4.769c-4.752,6.43-5.056,10.466-3.668,14.337c1.12,3.121,3.749,6.81,9.148,14.242
			c2.174,2.993,6.176,8.503,8.574,12.318c-1.829,1.967-3.789,3.97-4.832,5.012c-3.958,3.95-3.964,10.384-0.013,14.345
			c1.917,1.918,4.467,2.975,7.178,2.975c2.702,0,5.246-1.052,7.118-2.92c0.064-0.064,7.037-6.999,10.084-11.018
			c6.131-8.094-0.598-17.355-11.746-32.699c-1.276-1.756-2.974-4.091-4.357-6.073c0.552-0.622,1.249-1.378,2.127-2.287
			c15.738,21.79,40.625,34.624,67.706,34.624c27.267,0,52.252-12.964,67.972-34.971c1.038,1.065,1.841,1.935,2.464,2.634
			c-1.304,1.871-2.896,4.064-4.188,5.843l-0.168,0.232c-11.148,15.345-17.878,24.607-11.747,32.699
			c2.653,3.498,8.314,9.244,10.038,10.972c1.914,1.912,4.457,2.965,7.162,2.965c2.718,0,5.269-1.058,7.18-2.978
			c3.946-3.956,3.941-10.387-0.009-14.337c-1.049-1.051-3.015-3.058-4.835-5.016c2.459-3.91,6.601-9.602,8.621-12.381
			c5.362-7.389,7.99-11.077,9.101-14.183c1.385-3.869,1.073-7.911-3.672-14.337c3.079,2.052,6.305,4.012,7.588,4.783
			c1.575,0.947,3.378,1.447,5.211,1.447c3.547,0,6.884-1.891,8.704-4.933c1.392-2.32,1.794-5.045,1.137-7.675
			c-0.66-2.632-2.301-4.847-4.62-6.235c-0.959-0.575-3.492-2.129-5.901-3.697c1.41-4.304,3.975-10.647,5.368-14.092
			c3.326-8.235,5.077-12.685,5.401-15.966c0.66-6.557-1.724-13.402-37.185-30.497c-1.026-6.874-2.988-13.5-5.855-19.777
			c10.252-5.455,17.126-10.019,20.947-13.904c4.303-4.375,4.627-7.673,4.336-10.591c-0.328-3.287-2.081-7.734-5.428-16.015
			c-1.384-3.433-3.938-9.754-5.342-14.041c2.41-1.571,4.943-3.122,5.902-3.696c4.794-2.876,6.355-9.118,3.478-13.917
			c-1.805-3.008-5.176-4.876-8.794-4.876c-1.82,0-3.588,0.481-5.172,1.429c-2.025,1.222-8.904,5.424-12.341,8.191
			c-7.903,6.368-3.616,16.98,3.489,34.559l0.062,0.152c0.838,2.077,1.874,4.643,2.699,6.809c-2.925,1.999-7.96,5.017-14.804,8.653
			c-2.679-3.157-5.625-6.097-8.803-8.781c-0.701-3.756-1.841-7.407-3.402-10.899c0.782-4.829-1.738-10.903-6.994-16.491
			c-5.423-5.764-11.946-8.824-16.92-7.854c-3.949-1.856-8.085-3.159-12.357-3.894c0.068-0.44,0.137-0.883,0.206-1.329
			c0.488-3.138,0.993-6.383,1.941-9.203c1.552-4.619,3.813-8.59,6.551-11.581c0.001,0.229,0.012,0.457,0.031,0.688
			c-0.126,0.41-0.229,0.827-0.309,1.249c-1.064,5.628,1.852,12.147,5.289,15.199c2.893,2.568,6.961,4.04,11.161,4.04
			c0.394,0,0.787-0.013,1.174-0.038c4.401-0.282,8.282-2.11,10.933-5.151c6.433-7.401,4.097-19.021-1.759-25.542
			c-4.217-4.691-10.367-7.383-16.879-7.383c-4.542,0-8.884,1.308-12.549,3.779c-6.592,4.44-11.897,11.878-14.942,20.942
			c-1.084,3.224-1.687,6.524-2.172,9.561c-0.498-3.127-1.082-6.335-2.167-9.563c-3.05-9.066-8.357-16.504-14.944-20.939
			c-3.668-2.473-8.006-3.782-12.549-3.782c-6.512,0-12.664,2.692-16.878,7.386c-5.854,6.523-8.193,18.142-1.757,25.544
			c2.646,3.038,6.528,4.866,10.922,5.147c4.606,0.294,9.173-1.191,12.339-3.999c3.437-3.047,6.357-9.565,5.294-15.2
			c-0.08-0.425-0.185-0.845-0.31-1.256c0.02-0.229,0.029-0.456,0.03-0.683c2.737,2.989,4.998,6.962,6.552,11.583
			c0.951,2.825,1.454,6.074,1.949,9.254l0.031,0.202c0.125,0.804,0.252,1.62,0.389,2.445c-2.239,0.678-4.429,1.518-6.556,2.514
			c-4.978-0.947-11.465,2.123-16.866,7.866c-5.191,5.518-7.721,11.546-7.007,16.356c-1.594,3.534-2.755,7.231-3.465,11.033
			c-3.099,2.619-5.982,5.485-8.612,8.563c-6.633-3.538-11.53-6.479-14.396-8.437c0.884-2.32,1.993-5.056,2.762-6.958
			c7.104-17.582,11.39-28.195,3.485-34.563c-3.557-2.863-10.918-7.338-12.405-8.227c-1.521-0.912-3.288-1.388-5.105-1.388
			c-3.619,0-6.99,1.869-8.797,4.88c-1.391,2.32-1.795,5.047-1.138,7.676c0.658,2.631,2.301,4.846,4.619,6.234
			c1.032,0.62,3.528,2.15,5.902,3.697c-1.409,4.293-3.967,10.628-5.368,14.094c-3.323,8.224-5.072,12.67-5.403,15.966
			c-0.674,6.713,3.202,12.715,24.801,24.234c-2.972,6.443-4.989,13.263-6.014,20.345c-34.867,16.882-37.198,23.672-36.545,30.188
			C9.019,167.785,10.768,172.232,14.09,180.462z M41.012,200.457c-0.229,0.222-0.455,0.442-0.677,0.66
			c0.119-0.572,0.201-1.167,0.245-1.781C40.722,199.71,40.865,200.084,41.012,200.457z M32.835,172.705
			c-0.838-2.075-1.873-4.638-2.698-6.802c1.379-0.94,3.233-2.114,5.538-3.479c-0.253,2.507-0.379,5.074-0.379,7.692
			c0,3.485,0.214,6.94,0.638,10.356C34.992,178.047,33.949,175.462,32.835,172.705z"/>
		<path style="fill:#E2E2E2;" d="M201.567,161.464c2.603,1.525,4.673,2.828,6.177,3.855c-0.884,2.319-1.991,5.057-2.761,6.96
			c-1.474,3.65-2.827,7.001-3.975,10.075c0.651-4.214,0.979-8.491,0.979-12.816C201.988,166.791,201.848,164.094,201.567,161.464z
			 M197.26,197.243c-0.024,1.163,0.065,2.258,0.282,3.284c-0.358-0.35-0.727-0.705-1.102-1.068
			C196.725,198.724,196.998,197.985,197.26,197.243z M154.729,27.431c1.13,2.624,1.226,5.632-0.036,7.085
			c-0.533,0.61-1.52,1.006-2.695,1.083c-1.02,0.064-2.037-0.124-2.828-0.491C152.164,33.716,154.333,30.84,154.729,27.431z
			 M78.786,35.6c-1.186-0.075-2.172-0.474-2.702-1.081c-1.266-1.454-1.172-4.463-0.042-7.086c0.396,3.409,2.564,6.283,5.559,7.674
			c-0.613,0.287-1.439,0.503-2.426,0.503C79.043,35.609,78.911,35.606,78.786,35.6z M13.581,179.88
			c1.288,3.182,3.926,9.701,5.367,14.09c-2.406,1.567-4.94,3.12-5.899,3.696c-2.324,1.394-3.967,3.61-4.621,6.234
			c-0.658,2.632-0.252,5.36,1.142,7.679c1.822,3.041,5.156,4.928,8.7,4.928c1.834,0,3.645-0.503,5.233-1.459
			c1.277-0.766,4.488-2.721,7.563-4.768c-4.752,6.431-5.056,10.467-3.668,14.338c1.12,3.12,3.749,6.81,9.148,14.242
			c2.173,2.992,6.175,8.504,8.574,12.318c-1.828,1.968-3.788,3.97-4.832,5.012c-3.957,3.949-3.964,10.384-0.013,14.344
			c1.917,1.918,4.467,2.976,7.178,2.976c2.703,0,5.241-1.059,7.118-2.92c0.065-0.065,7.038-7,10.084-11.019
			c6.131-8.093-0.597-17.353-11.745-32.698c-1.277-1.757-2.975-4.092-4.357-6.074c0.553-0.622,1.249-1.377,2.127-2.286
			c15.737,21.789,40.624,34.623,67.706,34.623c27.266,0,52.252-12.965,67.972-34.972c1.037,1.067,1.84,1.936,2.463,2.635
			c-1.305,1.871-2.896,4.064-4.188,5.842l-0.168,0.233c-11.148,15.345-17.878,24.608-11.746,32.698
			c2.653,3.499,8.314,9.245,10.037,10.973c1.914,1.911,4.458,2.965,7.162,2.965c2.718,0,5.268-1.059,7.182-2.978
			c3.945-3.957,3.941-10.387-0.01-14.337c-1.051-1.051-3.016-3.058-4.835-5.016c2.459-3.909,6.6-9.602,8.619-12.381
			c5.364-7.389,7.991-11.077,9.102-14.185c1.385-3.866,1.073-7.909-3.672-14.335c3.08,2.05,6.305,4.012,7.588,4.783
			c1.576,0.945,3.378,1.445,5.211,1.445c3.547,0,6.884-1.889,8.705-4.931c1.391-2.319,1.793-5.046,1.136-7.675
			c-0.659-2.631-2.301-4.847-4.62-6.234c-0.959-0.577-3.492-2.131-5.902-3.699c1.412-4.304,3.977-10.648,5.369-14.092
			c3.327-8.234,5.077-12.687,5.402-15.964c0.659-6.559-1.725-13.403-37.186-30.498c-1.026-6.875-2.988-13.5-5.855-19.777
			c10.253-5.455,17.127-10.02,20.947-13.905c4.304-4.374,4.627-7.672,4.337-10.589c-0.329-3.288-2.081-7.734-5.428-16.016
			c-1.385-3.433-3.938-9.754-5.342-14.041c2.409-1.571,4.942-3.121,5.902-3.696c4.794-2.876,6.354-9.118,3.477-13.917
			c-1.806-3.008-5.177-4.876-8.795-4.876c-1.82,0-3.59,0.479-5.171,1.428c-2.029,1.217-8.905,5.424-12.342,8.192
			c-7.903,6.368-3.615,16.979,3.489,34.559l0.061,0.151c0.839,2.078,1.873,4.643,2.699,6.809c-2.924,2-7.96,5.017-14.802,8.653
			c-2.68-3.157-5.626-6.096-8.804-8.781c-0.701-3.756-1.841-7.406-3.403-10.898c0.782-4.829-1.738-10.902-6.994-16.49
			c-5.422-5.765-11.945-8.826-16.92-7.855c-3.948-1.856-8.085-3.158-12.358-3.894c0.069-0.439,0.137-0.882,0.205-1.33
			c0.489-3.137,0.994-6.383,1.942-9.202c1.553-4.618,3.814-8.591,6.551-11.581c0.001,0.227,0.012,0.457,0.03,0.688
			c-0.125,0.409-0.226,0.826-0.308,1.249c-1.063,5.629,1.853,12.146,5.289,15.2c2.893,2.567,6.96,4.04,11.161,4.04
			c0.394,0,0.788-0.014,1.175-0.039c4.401-0.281,8.282-2.11,10.932-5.151c6.433-7.403,4.097-19.021-1.759-25.541
			c-4.216-4.692-10.367-7.383-16.879-7.383c-4.542,0-8.883,1.306-12.55,3.777c-6.591,4.441-11.896,11.879-14.941,20.944
			c-1.084,3.223-1.687,6.523-2.171,9.56c-0.498-3.128-1.082-6.334-2.167-9.563c-3.05-9.065-8.357-16.504-14.945-20.94
			c-3.668-2.473-8.006-3.78-12.549-3.78c-6.512,0-12.663,2.69-16.878,7.385c-5.855,6.522-8.193,18.141-1.756,25.545
			c2.646,3.037,6.527,4.866,10.921,5.148c4.606,0.293,9.174-1.192,12.339-4c3.437-3.047,6.357-9.566,5.295-15.199
			c-0.081-0.427-0.186-0.845-0.311-1.256c0.02-0.229,0.029-0.458,0.03-0.685c2.737,2.991,4.998,6.963,6.552,11.584
			c0.951,2.824,1.455,6.074,1.949,9.253l0.031,0.203c0.125,0.804,0.252,1.621,0.389,2.445c-2.238,0.678-4.429,1.517-6.555,2.515
			c-4.978-0.948-11.465,2.123-16.866,7.865c-5.192,5.517-7.721,11.544-7.007,16.357c-1.595,3.534-2.755,7.231-3.465,11.031
			c-3.1,2.62-5.982,5.486-8.613,8.564c-6.632-3.539-11.529-6.479-14.395-8.437c0.883-2.32,1.992-5.057,2.762-6.958
			c7.104-17.581,11.39-28.194,3.484-34.563c-3.556-2.863-10.918-7.339-12.404-8.229c-1.522-0.91-3.289-1.386-5.105-1.386
			c-3.62,0-6.99,1.868-8.798,4.879c-1.391,2.321-1.795,5.046-1.138,7.675c0.658,2.633,2.3,4.848,4.619,6.236
			c1.033,0.619,3.528,2.149,5.902,3.696c-1.408,4.293-3.967,10.628-5.367,14.093c-3.324,8.226-5.073,12.671-5.404,15.967
			c-0.672,6.712,3.202,12.714,24.801,24.233c-2.972,6.444-4.989,13.264-6.014,20.347C9.856,150.605,7.525,157.395,8.18,163.912
			C8.51,167.205,10.258,171.649,13.581,179.88z M40.502,199.876c-0.229,0.223-0.455,0.443-0.677,0.66
			c0.121-0.572,0.201-1.166,0.247-1.781C40.212,199.129,40.356,199.504,40.502,199.876z M32.325,172.124
			c-0.838-2.075-1.872-4.638-2.698-6.802c1.38-0.941,3.234-2.114,5.538-3.479c-0.252,2.507-0.379,5.075-0.379,7.694
			c0,3.484,0.214,6.941,0.639,10.355C34.483,177.467,33.439,174.88,32.325,172.124z"/>
		<path style="fill:#D4D4D4;" d="M201.058,160.883c2.602,1.525,4.672,2.827,6.177,3.855c-0.883,2.319-1.991,5.057-2.762,6.958
			c-1.473,3.651-2.826,7.003-3.974,10.076c0.651-4.214,0.98-8.492,0.98-12.816C201.479,166.209,201.338,163.513,201.058,160.883z
			 M196.75,196.662c-0.025,1.163,0.066,2.256,0.282,3.285c-0.358-0.351-0.725-0.707-1.1-1.069
			C196.216,198.142,196.487,197.403,196.75,196.662z M154.22,26.851c1.129,2.623,1.224,5.631-0.037,7.083
			c-0.533,0.611-1.521,1.005-2.696,1.083c-1.019,0.063-2.035-0.122-2.826-0.491C151.653,33.135,153.824,30.259,154.22,26.851z
			 M78.276,35.018c-1.187-0.071-2.173-0.473-2.702-1.081c-1.265-1.455-1.171-4.463-0.041-7.085c0.396,3.408,2.563,6.283,5.558,7.674
			c-0.614,0.286-1.44,0.503-2.426,0.503C78.533,35.028,78.4,35.025,78.276,35.018z M13.072,179.299
			c1.286,3.182,3.924,9.701,5.366,14.089c-2.407,1.568-4.939,3.12-5.897,3.695c-2.327,1.395-3.97,3.611-4.623,6.236
			c-0.659,2.631-0.253,5.359,1.141,7.679c1.822,3.04,5.156,4.929,8.701,4.929c1.835,0,3.643-0.505,5.232-1.459
			c1.277-0.768,4.49-2.724,7.563-4.768c-4.751,6.429-5.057,10.465-3.667,14.337c1.119,3.121,3.747,6.81,9.148,14.242
			c2.173,2.993,6.174,8.502,8.572,12.317c-1.828,1.968-3.788,3.971-4.831,5.013c-3.958,3.949-3.964,10.383-0.014,14.344
			c1.918,1.918,4.467,2.975,7.179,2.975c2.702,0,5.24-1.058,7.118-2.919c0.064-0.064,7.038-7.001,10.083-11.019
			c6.132-8.094-0.596-17.354-11.744-32.7c-1.277-1.755-2.976-4.09-4.358-6.073c0.553-0.622,1.25-1.378,2.128-2.286
			c15.737,21.789,40.624,34.624,67.706,34.624c27.265,0,52.252-12.965,67.971-34.972c1.037,1.066,1.843,1.935,2.463,2.634
			c-1.304,1.871-2.896,4.065-4.188,5.843l-0.168,0.232c-11.148,15.345-17.877,24.608-11.745,32.7
			c2.653,3.497,8.314,9.244,10.036,10.972c1.915,1.911,4.458,2.964,7.163,2.964c2.717,0,5.269-1.057,7.181-2.978
			c3.945-3.956,3.941-10.388-0.01-14.338c-1.05-1.05-3.014-3.058-4.835-5.016c2.459-3.909,6.6-9.601,8.62-12.38
			c5.363-7.389,7.991-11.078,9.102-14.184c1.383-3.868,1.071-7.911-3.674-14.336c3.081,2.051,6.306,4.012,7.588,4.782
			c1.577,0.946,3.38,1.447,5.211,1.447c3.548,0,6.884-1.891,8.705-4.933c1.391-2.319,1.794-5.045,1.137-7.674
			c-0.659-2.633-2.302-4.848-4.621-6.236c-0.959-0.576-3.492-2.129-5.901-3.698c1.413-4.302,3.976-10.646,5.368-14.091
			c3.328-8.235,5.079-12.687,5.402-15.965c0.659-6.558-1.724-13.402-37.186-30.498c-1.025-6.874-2.987-13.5-5.855-19.778
			c10.253-5.453,17.127-10.019,20.947-13.903c4.304-4.375,4.629-7.673,4.338-10.591c-0.33-3.287-2.08-7.733-5.428-16.016
			c-1.385-3.431-3.938-9.754-5.343-14.039c2.409-1.572,4.942-3.122,5.902-3.697c4.795-2.876,6.354-9.117,3.479-13.917
			c-1.806-3.008-5.175-4.875-8.795-4.875c-1.82,0-3.588,0.482-5.171,1.428c-2.026,1.222-8.906,5.423-12.341,8.192
			c-7.905,6.368-3.616,16.98,3.487,34.558l0.062,0.152c0.839,2.077,1.874,4.644,2.699,6.809c-2.924,1.998-7.96,5.017-14.802,8.654
			c-2.679-3.158-5.626-6.097-8.803-8.782c-0.701-3.756-1.842-7.407-3.404-10.899c0.782-4.828-1.738-10.902-6.993-16.491
			c-5.423-5.764-11.946-8.823-16.92-7.854c-3.949-1.856-8.085-3.159-12.358-3.894c0.07-0.439,0.139-0.883,0.206-1.33
			c0.489-3.137,0.993-6.382,1.941-9.201c1.553-4.619,3.814-8.59,6.551-11.581c0.001,0.227,0.013,0.456,0.032,0.688
			c-0.127,0.409-0.228,0.826-0.308,1.248c-1.065,5.629,1.852,12.148,5.288,15.199c2.893,2.569,6.96,4.04,11.16,4.04
			c0.395,0,0.788-0.013,1.176-0.038c4.4-0.282,8.281-2.11,10.931-5.151c6.433-7.401,4.098-19.02-1.758-25.541
			c-4.217-4.692-10.368-7.384-16.88-7.384c-4.542,0-8.882,1.308-12.548,3.779c-6.591,4.441-11.899,11.879-14.943,20.943
			c-1.084,3.223-1.686,6.523-2.17,9.559c-0.498-3.127-1.082-6.334-2.168-9.56c-3.05-9.067-8.357-16.504-14.943-20.941
			c-3.667-2.473-8.008-3.782-12.551-3.782c-6.511,0-12.662,2.692-16.878,7.387c-5.854,6.523-8.193,18.141-1.756,25.543
			c2.646,3.038,6.527,4.866,10.922,5.147c4.605,0.294,9.173-1.19,12.338-3.999c3.438-3.048,6.357-9.565,5.295-15.199
			c-0.08-0.425-0.183-0.845-0.309-1.256c0.018-0.229,0.028-0.457,0.029-0.684c2.736,2.99,4.997,6.962,6.551,11.583
			c0.951,2.824,1.455,6.073,1.95,9.255l0.03,0.201c0.125,0.805,0.252,1.62,0.389,2.445c-2.238,0.677-4.428,1.518-6.555,2.515
			c-4.978-0.948-11.465,2.122-16.866,7.865c-5.19,5.517-7.72,11.546-7.007,16.356c-1.595,3.534-2.754,7.231-3.464,11.033
			c-3.1,2.619-5.983,5.486-8.614,8.564c-6.632-3.539-11.529-6.479-14.395-8.438c0.885-2.32,1.993-5.056,2.763-6.957
			c7.103-17.582,11.39-28.195,3.483-34.564c-3.555-2.863-10.918-7.338-12.404-8.229c-1.521-0.91-3.289-1.386-5.105-1.386
			c-3.62,0-6.989,1.868-8.796,4.88c-1.392,2.32-1.796,5.047-1.14,7.675c0.659,2.631,2.302,4.847,4.62,6.234
			c1.032,0.62,3.527,2.149,5.901,3.698c-1.407,4.293-3.967,10.628-5.366,14.094c-3.323,8.224-5.074,12.669-5.405,15.965
			c-0.672,6.713,3.203,12.714,24.801,24.235c-2.971,6.443-4.988,13.262-6.014,20.345C9.347,150.024,7.015,156.814,7.669,163.331
			C7.999,166.623,9.748,171.068,13.072,179.299z M39.991,199.295c-0.229,0.222-0.453,0.442-0.675,0.659
			c0.119-0.572,0.201-1.167,0.246-1.78C39.701,198.548,39.846,198.922,39.991,199.295z M31.815,171.542
			c-0.837-2.074-1.872-4.638-2.696-6.802c1.379-0.941,3.233-2.113,5.537-3.478c-0.253,2.506-0.379,5.073-0.379,7.692
			c0,3.485,0.213,6.94,0.639,10.355C33.975,176.885,32.929,174.299,31.815,171.542z"/>
		<path style="fill:#C5C5C5;" d="M200.548,160.302c2.602,1.525,4.673,2.827,6.178,3.854c-0.884,2.319-1.992,5.056-2.762,6.959
			c-1.474,3.65-2.826,7.001-3.975,10.075c0.651-4.214,0.979-8.491,0.979-12.816C200.969,165.627,200.828,162.932,200.548,160.302z
			 M196.24,196.08c-0.024,1.164,0.066,2.258,0.282,3.285c-0.358-0.351-0.725-0.707-1.101-1.068
			C195.706,197.561,195.979,196.822,196.24,196.08z M153.71,26.269c1.129,2.623,1.225,5.632-0.038,7.084
			c-0.532,0.61-1.52,1.006-2.694,1.082c-1.02,0.063-2.036-0.122-2.828-0.489C151.145,32.554,153.314,29.678,153.71,26.269z
			 M77.768,34.436c-1.187-0.077-2.173-0.473-2.704-1.08c-1.264-1.454-1.171-4.463-0.041-7.085c0.396,3.408,2.564,6.283,5.56,7.674
			c-0.615,0.287-1.441,0.503-2.426,0.503C78.023,34.447,77.891,34.443,77.768,34.436z M12.561,178.718
			c1.288,3.181,3.926,9.701,5.368,14.09c-2.407,1.567-4.94,3.12-5.898,3.695c-2.326,1.395-3.97,3.609-4.623,6.234
			c-0.659,2.632-0.252,5.36,1.141,7.68c1.823,3.04,5.158,4.928,8.701,4.928c1.834,0,3.644-0.504,5.233-1.459
			c1.276-0.768,4.489-2.723,7.563-4.768c-4.751,6.43-5.057,10.467-3.668,14.337c1.121,3.121,3.75,6.81,9.149,14.242
			c2.173,2.993,6.174,8.504,8.572,12.318c-1.828,1.968-3.787,3.97-4.83,5.012c-3.959,3.95-3.964,10.384-0.014,14.345
			c1.918,1.918,4.467,2.976,7.178,2.976c2.703,0,5.24-1.059,7.119-2.921c0.065-0.064,7.037-6.999,10.083-11.019
			c6.131-8.094-0.597-17.354-11.746-32.698c-1.275-1.757-2.974-4.092-4.358-6.074c0.554-0.622,1.251-1.377,2.128-2.287
			c15.738,21.79,40.625,34.624,67.707,34.624c27.264,0,52.251-12.964,67.97-34.972c1.038,1.067,1.842,1.935,2.463,2.635
			c-1.304,1.871-2.895,4.064-4.186,5.843l-0.17,0.233c-11.147,15.345-17.877,24.607-11.746,32.698
			c2.654,3.498,8.315,9.244,10.037,10.973c1.915,1.911,4.459,2.965,7.164,2.965c2.717,0,5.268-1.059,7.18-2.979
			c3.946-3.956,3.941-10.387-0.01-14.337c-1.05-1.051-3.014-3.058-4.835-5.016c2.459-3.909,6.601-9.602,8.62-12.381
			c5.363-7.389,7.991-11.077,9.102-14.184c1.385-3.867,1.072-7.91-3.672-14.336c3.081,2.051,6.306,4.012,7.588,4.783
			c1.576,0.946,3.378,1.446,5.211,1.446c3.548,0,6.884-1.89,8.704-4.932c1.391-2.319,1.794-5.045,1.137-7.675
			c-0.659-2.631-2.301-4.846-4.62-6.234c-0.959-0.576-3.492-2.13-5.901-3.698c1.411-4.304,3.977-10.647,5.368-14.092
			c3.327-8.235,5.079-12.686,5.401-15.965c0.661-6.559-1.724-13.403-37.185-30.497c-1.024-6.875-2.988-13.501-5.855-19.778
			c10.252-5.454,17.126-10.02,20.946-13.904c4.304-4.375,4.628-7.673,4.338-10.59c-0.33-3.287-2.082-7.734-5.428-16.016
			c-1.385-3.432-3.939-9.754-5.343-14.041c2.41-1.571,4.942-3.122,5.901-3.695c4.795-2.876,6.355-9.119,3.479-13.918
			c-1.806-3.007-5.176-4.875-8.795-4.875c-1.82,0-3.59,0.478-5.172,1.428c-2.028,1.217-8.904,5.424-12.341,8.191
			c-7.903,6.368-3.615,16.98,3.489,34.56l0.062,0.151c0.839,2.077,1.873,4.644,2.699,6.809c-2.923,1.999-7.96,5.017-14.802,8.653
			c-2.679-3.157-5.627-6.097-8.804-8.781c-0.7-3.756-1.842-7.407-3.403-10.899c0.783-4.829-1.739-10.902-6.994-16.49
			c-5.422-5.765-11.945-8.825-16.92-7.855c-3.948-1.856-8.084-3.159-12.358-3.893c0.07-0.44,0.139-0.882,0.207-1.329
			c0.488-3.138,0.993-6.383,1.941-9.203c1.553-4.618,3.813-8.59,6.552-11.581c0,0.229,0.011,0.458,0.03,0.688
			c-0.125,0.41-0.227,0.827-0.308,1.25c-1.064,5.627,1.852,12.147,5.288,15.198c2.893,2.568,6.96,4.04,11.16,4.04
			c0.395,0,0.788-0.013,1.175-0.037c4.401-0.282,8.283-2.111,10.933-5.152c6.433-7.402,4.097-19.02-1.759-25.541
			c-4.216-4.692-10.367-7.384-16.879-7.384c-4.543,0-8.883,1.308-12.549,3.779c-6.592,4.44-11.897,11.879-14.942,20.943
			c-1.084,3.223-1.687,6.522-2.171,9.56c-0.499-3.127-1.082-6.335-2.168-9.562c-3.049-9.066-8.357-16.505-14.943-20.94
			c-3.668-2.474-8.007-3.781-12.55-3.781c-6.512,0-12.663,2.691-16.877,7.386c-5.855,6.521-8.194,18.141-1.758,25.544
			c2.646,3.037,6.528,4.866,10.922,5.147c4.606,0.293,9.174-1.192,12.34-4c3.437-3.047,6.355-9.566,5.293-15.199
			c-0.08-0.426-0.184-0.846-0.309-1.257c0.019-0.229,0.028-0.456,0.03-0.684c2.736,2.99,4.997,6.964,6.551,11.584
			c0.951,2.825,1.455,6.074,1.949,9.254l0.031,0.202c0.125,0.804,0.253,1.62,0.388,2.445c-2.237,0.678-4.428,1.518-6.554,2.515
			c-4.979-0.947-11.465,2.122-16.866,7.866c-5.191,5.517-7.721,11.544-7.008,16.356c-1.594,3.534-2.755,7.231-3.463,11.032
			c-3.1,2.619-5.983,5.485-8.615,8.563c-6.631-3.538-11.528-6.479-14.395-8.436c0.885-2.319,1.993-5.056,2.763-6.957
			c7.103-17.583,11.39-28.196,3.483-34.564c-3.556-2.863-10.918-7.338-12.403-8.228c-1.521-0.911-3.289-1.387-5.105-1.387
			c-3.619,0-6.991,1.868-8.796,4.879c-1.392,2.321-1.797,5.047-1.139,7.676c0.657,2.632,2.3,4.847,4.619,6.235
			c1.032,0.619,3.527,2.149,5.901,3.696c-1.408,4.294-3.968,10.628-5.368,14.094c-3.322,8.225-5.072,12.67-5.402,15.967
			c-0.673,6.712,3.202,12.714,24.8,24.233c-2.972,6.443-4.988,13.263-6.014,20.346C8.837,149.443,6.507,156.232,7.16,162.75
			C7.489,166.041,9.239,170.487,12.561,178.718z M39.482,198.714c-0.229,0.222-0.454,0.442-0.676,0.659
			c0.119-0.572,0.2-1.166,0.246-1.781C39.192,197.966,39.337,198.34,39.482,198.714z M31.306,170.962
			c-0.837-2.076-1.872-4.639-2.697-6.803c1.379-0.94,3.233-2.114,5.537-3.479c-0.252,2.507-0.378,5.074-0.378,7.693
			c0,3.484,0.213,6.941,0.638,10.356C33.464,176.303,32.42,173.718,31.306,170.962z"/>
		<path style="fill:#B7B7B7;" d="M200.038,159.721c2.602,1.525,4.673,2.826,6.178,3.854c-0.884,2.319-1.991,5.055-2.762,6.959
			c-1.474,3.65-2.826,7.001-3.975,10.075c0.651-4.214,0.979-8.491,0.979-12.816C200.459,165.046,200.319,162.351,200.038,159.721z
			 M195.732,195.499c-0.024,1.165,0.065,2.258,0.281,3.284c-0.358-0.35-0.725-0.706-1.101-1.067
			C195.196,196.98,195.469,196.241,195.732,195.499z M153.2,25.688c1.129,2.623,1.225,5.631-0.037,7.084
			c-0.532,0.61-1.52,1.006-2.695,1.083c-1.019,0.063-2.036-0.122-2.827-0.49C150.635,31.972,152.805,29.096,153.2,25.688z
			 M77.258,33.855c-1.187-0.075-2.172-0.474-2.703-1.082c-1.264-1.453-1.17-4.462-0.041-7.084c0.396,3.408,2.565,6.282,5.559,7.674
			c-0.614,0.287-1.44,0.503-2.426,0.503C77.515,33.866,77.382,33.862,77.258,33.855z M12.053,178.137
			c1.287,3.182,3.926,9.701,5.366,14.09c-2.406,1.566-4.94,3.12-5.898,3.694c-2.326,1.395-3.97,3.611-4.623,6.236
			c-0.659,2.63-0.252,5.36,1.142,7.679c1.822,3.039,5.157,4.928,8.7,4.928c1.835,0,3.645-0.504,5.233-1.458
			c1.277-0.768,4.49-2.723,7.563-4.769c-4.75,6.43-5.056,10.467-3.667,14.337c1.12,3.122,3.749,6.811,9.149,14.242
			c2.173,2.993,6.174,8.504,8.572,12.317c-1.828,1.969-3.788,3.972-4.832,5.014c-3.957,3.949-3.963,10.384-0.012,14.344
			c1.917,1.919,4.466,2.976,7.177,2.976c2.704,0,5.233-1.065,7.119-2.921c0.065-0.064,7.038-6.999,10.083-11.018
			c6.131-8.093-0.597-17.355-11.745-32.698c-1.276-1.756-2.974-4.091-4.358-6.074c0.554-0.622,1.251-1.377,2.128-2.286
			c15.738,21.789,40.624,34.623,67.707,34.623c27.265,0,52.251-12.964,67.971-34.971c1.037,1.065,1.842,1.936,2.463,2.634
			c-1.304,1.87-2.896,4.065-4.186,5.843l-0.169,0.233c-11.148,15.344-17.878,24.606-11.746,32.698
			c2.653,3.499,8.315,9.245,10.037,10.973c1.915,1.911,4.458,2.965,7.163,2.965c2.717,0,5.269-1.058,7.18-2.98
			c3.946-3.954,3.941-10.386-0.009-14.336c-1.05-1.05-3.014-3.058-4.835-5.017c2.459-3.908,6.6-9.601,8.62-12.38
			c5.363-7.389,7.99-11.077,9.102-14.183c1.384-3.869,1.072-7.912-3.673-14.336c3.081,2.051,6.306,4.012,7.588,4.782
			c1.576,0.946,3.379,1.446,5.211,1.446c3.548,0,6.884-1.891,8.705-4.931c1.391-2.32,1.794-5.046,1.136-7.675
			c-0.659-2.632-2.301-4.847-4.619-6.235c-0.96-0.576-3.493-2.13-5.901-3.698c1.411-4.304,3.976-10.647,5.368-14.092
			c3.326-8.235,5.078-12.686,5.401-15.965c0.66-6.558-1.725-13.402-37.186-30.498c-1.025-6.873-2.987-13.5-5.855-19.777
			c10.252-5.454,17.126-10.019,20.946-13.903c4.304-4.377,4.629-7.673,4.338-10.591c-0.33-3.287-2.081-7.735-5.428-16.017
			c-1.385-3.431-3.939-9.753-5.343-14.04c2.41-1.57,4.942-3.122,5.902-3.696c4.794-2.876,6.355-9.118,3.478-13.916
			c-1.806-3.008-5.175-4.876-8.795-4.876c-1.82,0-3.588,0.481-5.171,1.428c-2.026,1.221-8.905,5.423-12.341,8.19
			c-7.904,6.37-3.615,16.981,3.489,34.561l0.062,0.151c0.838,2.076,1.873,4.644,2.698,6.81c-2.923,1.998-7.96,5.017-14.802,8.652
			c-2.679-3.157-5.626-6.097-8.803-8.781c-0.701-3.755-1.842-7.408-3.403-10.899c0.782-4.828-1.738-10.903-6.994-16.49
			c-5.423-5.765-11.946-8.824-16.92-7.855c-3.949-1.856-8.085-3.159-12.358-3.895c0.069-0.439,0.138-0.881,0.207-1.328
			c0.487-3.137,0.992-6.383,1.94-9.203c1.553-4.619,3.813-8.59,6.552-11.582c0.001,0.229,0.011,0.459,0.031,0.689
			c-0.126,0.411-0.229,0.827-0.308,1.25c-1.065,5.627,1.852,12.146,5.288,15.198c2.892,2.568,6.961,4.041,11.161,4.041
			c0.393,0,0.788-0.014,1.174-0.038c4.401-0.282,8.282-2.11,10.932-5.153c6.433-7.4,4.097-19.019-1.758-25.54
			c-4.217-4.691-10.368-7.383-16.88-7.383c-4.542,0-8.882,1.307-12.548,3.777c-6.591,4.441-11.897,11.879-14.943,20.944
			c-1.084,3.223-1.687,6.522-2.171,9.56c-0.497-3.128-1.082-6.335-2.168-9.562c-3.049-9.066-8.356-16.504-14.942-20.94
			c-3.668-2.474-8.008-3.781-12.551-3.781c-6.512,0-12.663,2.692-16.877,7.385c-5.855,6.522-8.194,18.142-1.757,25.544
			c2.646,3.039,6.528,4.867,10.921,5.147c4.607,0.295,9.174-1.191,12.34-3.998c3.436-3.048,6.356-9.565,5.294-15.201
			c-0.08-0.424-0.184-0.844-0.31-1.256c0.019-0.229,0.029-0.457,0.03-0.684c2.736,2.991,4.998,6.964,6.551,11.585
			c0.951,2.824,1.455,6.073,1.95,9.253l0.031,0.202c0.125,0.804,0.252,1.62,0.388,2.446c-2.238,0.677-4.428,1.518-6.555,2.514
			c-4.978-0.947-11.465,2.123-16.866,7.866c-5.191,5.517-7.72,11.544-7.007,16.355c-1.595,3.534-2.755,7.231-3.464,11.032
			c-3.1,2.62-5.983,5.486-8.614,8.563c-6.631-3.537-11.528-6.477-14.396-8.436c0.885-2.319,1.993-5.055,2.764-6.957
			c7.102-17.583,11.389-28.195,3.484-34.564c-3.557-2.864-10.919-7.338-12.405-8.229c-1.521-0.911-3.288-1.387-5.105-1.387
			c-3.619,0-6.99,1.868-8.796,4.879c-1.392,2.32-1.796,5.047-1.139,7.676c0.658,2.632,2.301,4.847,4.618,6.235
			c1.033,0.619,3.529,2.148,5.903,3.696c-1.409,4.293-3.968,10.628-5.367,14.094c-3.324,8.225-5.074,12.67-5.404,15.967
			c-0.673,6.712,3.201,12.714,24.8,24.232c-2.972,6.443-4.989,13.264-6.013,20.346C8.328,148.862,5.997,155.651,6.65,162.168
			C6.982,165.461,8.729,169.906,12.053,178.137z M38.973,198.133c-0.228,0.222-0.454,0.442-0.676,0.659
			c0.119-0.573,0.201-1.166,0.246-1.781C38.684,197.386,38.827,197.76,38.973,198.133z M30.796,170.381
			c-0.837-2.076-1.871-4.638-2.696-6.804c1.378-0.939,3.233-2.114,5.536-3.477c-0.252,2.505-0.379,5.074-0.379,7.692
			c0,3.484,0.215,6.939,0.639,10.355C32.955,175.723,31.91,173.138,30.796,170.381z"/>
		<path style="fill:#A8A8A8;" d="M199.529,159.139c2.601,1.525,4.672,2.826,6.176,3.855c-0.883,2.318-1.991,5.055-2.761,6.959
			c-1.474,3.65-2.826,7.001-3.975,10.074c0.652-4.213,0.98-8.491,0.98-12.816C199.949,164.464,199.81,161.769,199.529,159.139z
			 M195.221,194.918c-0.024,1.164,0.066,2.257,0.282,3.284c-0.359-0.351-0.726-0.707-1.101-1.068
			C194.686,196.398,194.959,195.659,195.221,194.918z M152.691,25.107c1.128,2.622,1.224,5.63-0.038,7.083
			c-0.532,0.61-1.52,1.007-2.694,1.082c-1.018,0.064-2.037-0.121-2.828-0.488C150.125,31.391,152.294,28.515,152.691,25.107z
			 M76.748,33.273c-1.186-0.077-2.173-0.474-2.703-1.082c-1.264-1.453-1.171-4.461-0.042-7.083c0.396,3.408,2.565,6.282,5.559,7.673
			c-0.614,0.288-1.439,0.504-2.425,0.504C77.004,33.285,76.871,33.281,76.748,33.273z M11.542,177.556
			c1.288,3.181,3.926,9.7,5.367,14.09c-2.406,1.566-4.939,3.12-5.898,3.694c-2.326,1.393-3.969,3.61-4.623,6.234
			c-0.659,2.632-0.252,5.361,1.141,7.681c1.822,3.039,5.157,4.928,8.702,4.928c1.834,0,3.642-0.504,5.232-1.459
			c1.276-0.768,4.49-2.723,7.563-4.769c-4.751,6.43-5.056,10.467-3.667,14.338c1.119,3.12,3.749,6.809,9.148,14.242
			c2.173,2.992,6.174,8.504,8.572,12.318c-1.828,1.967-3.787,3.97-4.831,5.012c-3.957,3.95-3.963,10.384-0.013,14.344
			c1.917,1.919,4.467,2.976,7.178,2.976c2.704,0,5.24-1.059,7.118-2.92c0.067-0.066,7.038-6.999,10.085-11.02
			c6.13-8.094-0.598-17.352-11.746-32.698c-1.277-1.756-2.975-4.092-4.357-6.073c0.553-0.623,1.25-1.378,2.126-2.287
			c15.739,21.789,40.626,34.624,67.708,34.624c27.264,0,52.251-12.966,67.97-34.973c1.038,1.068,1.842,1.936,2.463,2.636
			c-1.303,1.871-2.895,4.063-4.187,5.843l-0.169,0.232c-11.147,15.344-17.877,24.607-11.746,32.698
			c2.654,3.499,8.316,9.245,10.037,10.973c1.916,1.912,4.458,2.965,7.164,2.965c2.716,0,5.269-1.059,7.18-2.979
			c3.946-3.956,3.94-10.386-0.01-14.336c-1.049-1.052-3.014-3.058-4.834-5.016c2.459-3.909,6.6-9.602,8.62-12.381
			c5.363-7.39,7.99-11.078,9.1-14.184c1.385-3.868,1.072-7.911-3.671-14.336c3.08,2.05,6.305,4.012,7.587,4.783
			c1.576,0.946,3.378,1.446,5.21,1.446c3.548,0,6.885-1.891,8.706-4.932c1.391-2.321,1.794-5.045,1.136-7.675
			c-0.659-2.632-2.302-4.847-4.62-6.235c-0.959-0.575-3.492-2.129-5.901-3.697c1.411-4.305,3.977-10.648,5.369-14.092
			c3.326-8.235,5.077-12.688,5.401-15.966c0.659-6.559-1.725-13.403-37.187-30.498c-1.024-6.873-2.987-13.5-5.854-19.776
			c10.251-5.455,17.126-10.021,20.945-13.904c4.305-4.375,4.629-7.673,4.339-10.591c-0.33-3.286-2.082-7.735-5.428-16.016
			c-1.386-3.432-3.938-9.753-5.343-14.04c2.41-1.571,4.943-3.123,5.901-3.697c4.795-2.876,6.354-9.118,3.479-13.917
			c-1.806-3.007-5.176-4.874-8.794-4.874c-1.821,0-3.592,0.477-5.173,1.426c-2.027,1.219-8.904,5.425-12.341,8.193
			c-7.903,6.368-3.614,16.979,3.49,34.559l0.061,0.152c0.839,2.076,1.873,4.644,2.699,6.809c-2.923,1.999-7.961,5.017-14.802,8.653
			c-2.679-3.157-5.627-6.097-8.804-8.782c-0.701-3.755-1.842-7.407-3.402-10.899c0.782-4.829-1.739-10.902-6.995-16.49
			c-5.422-5.765-11.945-8.824-16.92-7.854c-3.948-1.856-8.084-3.16-12.358-3.894c0.07-0.44,0.139-0.883,0.207-1.329
			c0.488-3.138,0.992-6.383,1.941-9.204c1.552-4.618,3.815-8.589,6.552-11.58c0,0.229,0.012,0.457,0.03,0.688
			c-0.125,0.41-0.228,0.827-0.307,1.25c-1.065,5.627,1.851,12.146,5.287,15.197c2.894,2.569,6.961,4.041,11.161,4.041
			c0.393,0,0.788-0.013,1.175-0.038c4.4-0.282,8.282-2.11,10.931-5.151c6.435-7.403,4.099-19.021-1.758-25.542
			c-4.215-4.692-10.367-7.383-16.878-7.383c-4.544,0-8.884,1.308-12.55,3.779c-6.591,4.439-11.898,11.878-14.942,20.942
			c-1.083,3.223-1.686,6.523-2.171,9.56c-0.498-3.128-1.083-6.336-2.167-9.563c-3.051-9.066-8.357-16.505-14.944-20.939
			c-3.668-2.475-8.007-3.782-12.55-3.782c-6.511,0-12.664,2.692-16.878,7.386c-5.855,6.522-8.194,18.142-1.757,25.543
			c2.648,3.039,6.529,4.867,10.923,5.147c4.605,0.294,9.173-1.19,12.339-3.999c3.437-3.046,6.356-9.565,5.293-15.199
			c-0.079-0.425-0.184-0.846-0.309-1.257c0.019-0.229,0.028-0.456,0.03-0.684c2.735,2.991,4.998,6.964,6.552,11.585
			c0.95,2.825,1.454,6.074,1.949,9.253l0.03,0.203c0.125,0.804,0.252,1.619,0.389,2.445c-2.238,0.677-4.428,1.517-6.556,2.515
			c-4.977-0.947-11.464,2.121-16.865,7.865c-5.19,5.518-7.721,11.544-7.008,16.355c-1.593,3.534-2.755,7.231-3.464,11.032
			c-3.099,2.62-5.982,5.486-8.613,8.564c-6.631-3.538-11.528-6.479-14.395-8.438c0.885-2.319,1.992-5.055,2.762-6.957
			c7.103-17.583,11.389-28.196,3.484-34.564c-3.557-2.864-10.918-7.339-12.403-8.228c-1.521-0.911-3.289-1.388-5.106-1.388
			c-3.62,0-6.99,1.868-8.796,4.879c-1.392,2.321-1.796,5.047-1.139,7.677c0.657,2.632,2.3,4.846,4.619,6.234
			c1.032,0.62,3.527,2.148,5.901,3.697c-1.409,4.293-3.968,10.628-5.367,14.093c-3.323,8.225-5.074,12.671-5.403,15.967
			c-0.673,6.713,3.201,12.715,24.799,24.233c-2.971,6.444-4.988,13.264-6.013,20.346c-34.867,16.882-37.197,23.67-36.544,30.187
			C6.471,164.879,8.219,169.323,11.542,177.556z M38.464,197.55c-0.229,0.223-0.455,0.443-0.677,0.661
			c0.119-0.572,0.201-1.166,0.245-1.781C38.174,196.804,38.317,197.177,38.464,197.55z M30.286,169.799
			c-0.837-2.075-1.871-4.638-2.697-6.803c1.378-0.939,3.233-2.114,5.538-3.479c-0.252,2.507-0.379,5.075-0.379,7.693
			c0,3.484,0.214,6.941,0.637,10.355C32.444,175.141,31.4,172.556,30.286,169.799z"/>
		<path style="fill:#9A9A9A;" d="M199.02,158.558c2.6,1.525,4.672,2.827,6.176,3.854c-0.883,2.319-1.991,5.056-2.76,6.959
			c-1.475,3.65-2.827,7.001-3.976,10.075c0.652-4.214,0.979-8.491,0.979-12.816C199.439,163.884,199.3,161.188,199.02,158.558z
			 M194.711,194.336c-0.025,1.164,0.066,2.258,0.282,3.285c-0.357-0.351-0.726-0.706-1.101-1.068
			C194.177,195.816,194.448,195.078,194.711,194.336z M152.181,24.524c1.129,2.623,1.224,5.632-0.038,7.084
			c-0.532,0.611-1.52,1.006-2.694,1.083c-1.019,0.064-2.036-0.123-2.828-0.49C149.614,30.81,151.785,27.934,152.181,24.524z
			 M76.237,32.692c-1.184-0.075-2.172-0.473-2.702-1.081c-1.264-1.454-1.171-4.463-0.042-7.085c0.396,3.408,2.565,6.283,5.559,7.674
			c-0.613,0.287-1.44,0.503-2.425,0.503C76.494,32.703,76.361,32.699,76.237,32.692z M11.032,176.974
			c1.288,3.181,3.926,9.701,5.367,14.09c-2.406,1.567-4.938,3.12-5.897,3.695c-2.326,1.395-3.969,3.61-4.623,6.234
			c-0.659,2.632-0.252,5.361,1.141,7.68c1.823,3.04,5.157,4.928,8.702,4.928c1.834,0,3.643-0.504,5.232-1.459
			c1.277-0.767,4.49-2.722,7.563-4.768c-4.752,6.431-5.057,10.467-3.668,14.337c1.119,3.121,3.748,6.811,9.149,14.242
			c2.173,2.993,6.174,8.504,8.572,12.318c-1.828,1.968-3.787,3.97-4.831,5.012c-3.957,3.95-3.963,10.385-0.013,14.345
			c1.917,1.918,4.466,2.976,7.179,2.976c2.702,0,5.24-1.059,7.117-2.921c0.065-0.064,7.038-6.999,10.085-11.018
			c6.131-8.093-0.597-17.354-11.746-32.698c-1.277-1.756-2.975-4.092-4.358-6.074c0.553-0.622,1.249-1.377,2.127-2.286
			c15.738,21.79,40.625,34.623,67.706,34.623c27.266,0,52.252-12.964,67.971-34.971c1.039,1.066,1.842,1.935,2.463,2.634
			c-1.303,1.871-2.895,4.065-4.186,5.843l-0.169,0.233c-11.148,15.345-17.876,24.607-11.746,32.698
			c2.654,3.498,8.315,9.245,10.038,10.973c1.915,1.911,4.457,2.965,7.163,2.965c2.717,0,5.269-1.059,7.18-2.979
			c3.946-3.955,3.94-10.387-0.009-14.337c-1.05-1.05-3.015-3.058-4.835-5.016c2.459-3.909,6.601-9.602,8.62-12.381
			c5.363-7.389,7.991-11.077,9.101-14.184c1.386-3.867,1.072-7.91-3.671-14.336c3.08,2.052,6.305,4.012,7.586,4.783
			c1.577,0.946,3.379,1.446,5.211,1.446c3.549,0,6.884-1.89,8.706-4.932c1.391-2.319,1.794-5.045,1.137-7.675
			c-0.659-2.631-2.302-4.846-4.621-6.234c-0.959-0.576-3.492-2.13-5.901-3.698c1.411-4.304,3.976-10.647,5.368-14.092
			c3.328-8.235,5.078-12.686,5.402-15.965c0.659-6.558-1.725-13.403-37.186-30.497c-1.025-6.875-2.988-13.501-5.854-19.778
			c10.251-5.454,17.127-10.02,20.946-13.904c4.304-4.375,4.628-7.673,4.337-10.59c-0.329-3.287-2.081-7.734-5.427-16.016
			c-1.385-3.432-3.939-9.754-5.344-14.04c2.41-1.572,4.944-3.122,5.902-3.696c4.796-2.876,6.354-9.118,3.479-13.917
			c-1.806-3.008-5.176-4.876-8.794-4.876c-1.821,0-3.591,0.478-5.172,1.428c-2.028,1.217-8.905,5.424-12.342,8.191
			c-7.903,6.369-3.614,16.981,3.49,34.56l0.061,0.151c0.839,2.077,1.874,4.644,2.698,6.809c-2.922,1.999-7.959,5.017-14.801,8.653
			c-2.68-3.157-5.627-6.097-8.804-8.781c-0.701-3.756-1.842-7.407-3.403-10.899c0.783-4.829-1.738-10.903-6.994-16.491
			c-5.422-5.765-11.945-8.825-16.92-7.854c-3.949-1.857-8.084-3.159-12.357-3.895c0.069-0.439,0.138-0.882,0.206-1.329
			c0.489-3.138,0.993-6.383,1.942-9.202c1.551-4.619,3.813-8.59,6.551-11.582c0,0.229,0.012,0.458,0.03,0.688
			c-0.126,0.411-0.228,0.827-0.307,1.25c-1.065,5.628,1.85,12.146,5.287,15.199c2.893,2.567,6.961,4.04,11.161,4.04
			c0.394,0,0.788-0.014,1.175-0.038c4.4-0.282,8.282-2.11,10.931-5.152c6.434-7.402,4.099-19.021-1.758-25.541
			c-4.216-4.692-10.368-7.383-16.878-7.383c-4.543,0-8.884,1.307-12.55,3.778c-6.591,4.44-11.897,11.879-14.943,20.943
			c-1.083,3.224-1.685,6.523-2.17,9.56c-0.498-3.127-1.082-6.334-2.167-9.561c-3.051-9.066-8.358-16.504-14.944-20.941
			C92.058,7.817,87.72,6.51,83.176,6.51c-6.511,0-12.662,2.692-16.878,7.386c-5.854,6.521-8.193,18.141-1.756,25.544
			c2.646,3.038,6.527,4.866,10.922,5.147c4.605,0.294,9.172-1.191,12.339-3.999c3.437-3.048,6.356-9.566,5.293-15.2
			c-0.079-0.426-0.184-0.845-0.309-1.256c0.019-0.229,0.028-0.457,0.03-0.684c2.735,2.991,4.997,6.964,6.552,11.584
			c0.951,2.825,1.455,6.074,1.949,9.254l0.03,0.202c0.125,0.805,0.252,1.621,0.389,2.446c-2.238,0.677-4.428,1.517-6.556,2.514
			c-4.977-0.947-11.464,2.123-16.865,7.866c-5.19,5.517-7.72,11.544-7.008,16.355c-1.594,3.534-2.754,7.231-3.463,11.032
			c-3.1,2.619-5.984,5.486-8.614,8.563c-6.631-3.538-11.528-6.479-14.395-8.437c0.885-2.319,1.993-5.055,2.762-6.957
			c7.102-17.582,11.39-28.195,3.484-34.564c-3.557-2.863-10.918-7.338-12.403-8.228c-1.521-0.911-3.289-1.387-5.106-1.387
			c-3.62,0-6.99,1.869-8.796,4.879c-1.393,2.321-1.796,5.048-1.14,7.676c0.658,2.632,2.301,4.847,4.62,6.235
			c1.032,0.619,3.527,2.149,5.901,3.697c-1.408,4.293-3.968,10.627-5.367,14.093c-3.323,8.225-5.073,12.67-5.404,15.967
			c-0.672,6.712,3.203,12.714,24.801,24.233c-2.971,6.443-4.988,13.263-6.014,20.346c-34.867,16.881-37.197,23.67-36.544,30.188
			C5.961,164.298,7.71,168.743,11.032,176.974z M37.954,196.97c-0.229,0.222-0.455,0.442-0.677,0.659
			c0.119-0.572,0.201-1.166,0.246-1.781C37.663,196.223,37.808,196.597,37.954,196.97z M29.777,169.218
			c-0.839-2.075-1.872-4.638-2.698-6.803c1.379-0.941,3.234-2.114,5.538-3.479c-0.252,2.507-0.379,5.075-0.379,7.693
			c0,3.484,0.214,6.94,0.638,10.355C31.935,174.56,30.89,171.974,29.777,169.218z"/>
		<path style="fill:#8B8B8B;" d="M198.509,157.977c2.602,1.525,4.673,2.826,6.177,3.855c-0.884,2.318-1.991,5.056-2.761,6.958
			c-1.475,3.651-2.826,7.002-3.975,10.075c0.652-4.213,0.98-8.491,0.98-12.816C198.93,163.302,198.79,160.607,198.509,157.977z
			 M194.202,193.755c-0.024,1.164,0.065,2.257,0.281,3.285c-0.357-0.351-0.726-0.707-1.102-1.068
			C193.667,195.235,193.939,194.496,194.202,193.755z M151.671,23.943c1.129,2.623,1.224,5.631-0.038,7.083
			c-0.531,0.611-1.518,1.006-2.694,1.083c-1.019,0.063-2.036-0.122-2.828-0.489C149.105,30.229,151.275,27.353,151.671,23.943z
			 M75.728,32.11c-1.185-0.075-2.171-0.473-2.702-1.081c-1.265-1.454-1.171-4.462-0.042-7.084c0.396,3.408,2.565,6.283,5.559,7.675
			c-0.613,0.285-1.438,0.502-2.425,0.502C75.984,32.122,75.853,32.118,75.728,32.11z M10.523,176.393
			c1.289,3.181,3.926,9.7,5.367,14.089c-2.406,1.568-4.939,3.121-5.898,3.695c-2.325,1.395-3.968,3.61-4.622,6.235
			c-0.659,2.632-0.252,5.36,1.141,7.68c1.823,3.039,5.157,4.928,8.702,4.928c1.834,0,3.644-0.504,5.233-1.459
			c1.277-0.768,4.489-2.723,7.563-4.768c-4.752,6.43-5.057,10.466-3.668,14.337c1.119,3.121,3.748,6.81,9.148,14.242
			c2.173,2.993,6.175,8.503,8.573,12.318c-1.828,1.967-3.788,3.97-4.831,5.012c-3.957,3.95-3.964,10.384-0.014,14.346
			c1.917,1.917,4.467,2.974,7.179,2.974c2.702,0,5.24-1.058,7.117-2.92c0.065-0.064,7.039-7,10.085-11.019
			c6.131-8.094-0.597-17.355-11.746-32.699c-1.277-1.756-2.975-4.091-4.357-6.073c0.552-0.623,1.249-1.378,2.127-2.287
			c15.738,21.79,40.625,34.624,67.706,34.624c27.266,0,52.252-12.964,67.973-34.971c1.036,1.065,1.84,1.934,2.463,2.634
			c-1.305,1.87-2.897,4.064-4.188,5.843l-0.168,0.232c-11.148,15.345-17.877,24.607-11.746,32.7
			c2.652,3.497,8.314,9.243,10.038,10.971c1.913,1.912,4.456,2.965,7.162,2.965c2.717,0,5.269-1.057,7.18-2.979
			c3.945-3.955,3.941-10.387-0.008-14.337c-1.051-1.051-3.016-3.058-4.835-5.016c2.459-3.91,6.6-9.602,8.619-12.381
			c5.364-7.389,7.99-11.078,9.102-14.184c1.384-3.868,1.072-7.911-3.672-14.336c3.079,2.052,6.305,4.012,7.587,4.782
			c1.576,0.946,3.379,1.447,5.211,1.447c3.548,0,6.884-1.891,8.706-4.932c1.39-2.32,1.792-5.045,1.136-7.675
			c-0.66-2.632-2.302-4.847-4.621-6.235c-0.959-0.575-3.492-2.129-5.901-3.698c1.411-4.303,3.976-10.647,5.368-14.091
			c3.327-8.235,5.078-12.687,5.402-15.966c0.659-6.557-1.724-13.402-37.186-30.497c-1.025-6.874-2.988-13.5-5.855-19.777
			c10.251-5.455,17.126-10.02,20.946-13.904c4.303-4.376,4.628-7.673,4.337-10.591c-0.329-3.287-2.081-7.734-5.428-16.016
			c-1.384-3.432-3.937-9.754-5.343-14.04c2.41-1.571,4.943-3.122,5.903-3.696c4.794-2.876,6.354-9.118,3.478-13.917
			c-1.806-3.008-5.176-4.876-8.794-4.876c-1.82,0-3.588,0.482-5.172,1.429c-2.025,1.221-8.905,5.423-12.341,8.191
			c-7.904,6.368-3.616,16.98,3.488,34.559l0.061,0.151c0.839,2.078,1.874,4.644,2.699,6.81c-2.924,1.998-7.96,5.017-14.803,8.653
			c-2.679-3.157-5.624-6.097-8.803-8.781c-0.701-3.756-1.841-7.408-3.403-10.899c0.782-4.829-1.738-10.903-6.994-16.491
			c-5.422-5.764-11.945-8.824-16.92-7.854c-3.949-1.856-8.085-3.159-12.357-3.895c0.068-0.439,0.138-0.882,0.206-1.329
			c0.488-3.137,0.993-6.382,1.941-9.202c1.553-4.619,3.813-8.59,6.552-11.581c0.001,0.227,0.012,0.457,0.03,0.688
			c-0.126,0.41-0.228,0.827-0.308,1.249c-1.064,5.628,1.852,12.148,5.288,15.199c2.894,2.568,6.961,4.04,11.162,4.04
			c0.393,0,0.788-0.014,1.174-0.038c4.4-0.282,8.282-2.11,10.932-5.152c6.433-7.4,4.098-19.02-1.759-25.541
			c-4.216-4.691-10.367-7.383-16.879-7.383c-4.542,0-8.883,1.308-12.549,3.778c-6.591,4.441-11.898,11.879-14.942,20.943
			c-1.084,3.224-1.686,6.523-2.171,9.56c-0.498-3.127-1.081-6.334-2.167-9.562c-3.051-9.066-8.357-16.504-14.944-20.94
			c-3.668-2.472-8.006-3.781-12.549-3.781c-6.512,0-12.663,2.692-16.879,7.386c-5.854,6.523-8.193,18.142-1.755,25.544
			c2.645,3.038,6.526,4.866,10.92,5.148c4.606,0.294,9.173-1.191,12.34-3.999c3.436-3.048,6.357-9.566,5.294-15.2
			c-0.08-0.425-0.185-0.845-0.31-1.256c0.019-0.23,0.028-0.456,0.029-0.683c2.737,2.989,4.998,6.962,6.553,11.583
			c0.95,2.824,1.454,6.074,1.949,9.254l0.031,0.201c0.125,0.805,0.251,1.621,0.388,2.446c-2.238,0.678-4.428,1.518-6.556,2.514
			c-4.977-0.947-11.464,2.123-16.865,7.866c-5.191,5.518-7.72,11.546-7.008,16.355c-1.594,3.534-2.754,7.231-3.463,11.033
			c-3.101,2.619-5.983,5.485-8.613,8.563c-6.633-3.538-11.53-6.479-14.395-8.437c0.884-2.32,1.992-5.056,2.763-6.958
			c7.101-17.582,11.39-28.195,3.484-34.563c-3.557-2.863-10.918-7.338-12.405-8.229c-1.521-0.911-3.288-1.387-5.105-1.387
			c-3.62,0-6.99,1.869-8.797,4.88c-1.392,2.32-1.795,5.047-1.139,7.676c0.658,2.631,2.301,4.846,4.62,6.234
			c1.032,0.62,3.528,2.149,5.901,3.697c-1.407,4.293-3.967,10.628-5.367,14.094c-3.324,8.224-5.073,12.67-5.404,15.966
			c-0.673,6.713,3.203,12.714,24.801,24.234c-2.971,6.443-4.988,13.263-6.014,20.345C6.798,147.118,4.467,153.908,5.121,160.424
			C5.452,163.716,7.2,168.162,10.523,176.393z M37.444,196.388c-0.229,0.222-0.455,0.442-0.677,0.659
			c0.119-0.571,0.201-1.166,0.246-1.78C37.153,195.641,37.298,196.015,37.444,196.388z M29.267,168.636
			c-0.838-2.075-1.872-4.638-2.697-6.802c1.38-0.941,3.234-2.114,5.537-3.479c-0.252,2.506-0.378,5.074-0.378,7.692
			c0,3.485,0.214,6.94,0.639,10.355C31.425,173.978,30.381,171.393,29.267,168.636z"/>
		<path style="fill:#7D7D7D;" d="M197.999,157.395c2.603,1.525,4.673,2.828,6.177,3.854c-0.884,2.319-1.991,5.056-2.76,6.96
			c-1.475,3.649-2.828,7.001-3.975,10.074c0.651-4.213,0.979-8.49,0.979-12.816C198.421,162.721,198.28,160.024,197.999,157.395z
			 M193.691,193.174c-0.024,1.163,0.066,2.258,0.282,3.284c-0.358-0.35-0.726-0.707-1.102-1.068
			C193.156,194.654,193.43,193.916,193.691,193.174z M151.161,23.361c1.129,2.623,1.225,5.632-0.037,7.084
			c-0.533,0.61-1.519,1.007-2.695,1.082c-1.018,0.063-2.037-0.122-2.828-0.489C148.596,29.646,150.766,26.771,151.161,23.361z
			 M75.218,31.528c-1.185-0.076-2.172-0.473-2.702-1.079c-1.265-1.455-1.171-4.464-0.042-7.086c0.396,3.408,2.565,6.283,5.559,7.675
			c-0.613,0.286-1.439,0.503-2.425,0.503C75.475,31.541,75.343,31.536,75.218,31.528z M10.014,175.811
			c1.287,3.181,3.925,9.701,5.367,14.09c-2.407,1.567-4.94,3.12-5.899,3.696c-2.325,1.394-3.968,3.608-4.621,6.233
			c-0.659,2.632-0.253,5.361,1.141,7.68c1.822,3.041,5.156,4.928,8.701,4.928c1.834,0,3.643-0.504,5.232-1.459
			c1.277-0.767,4.489-2.722,7.563-4.768c-4.752,6.431-5.057,10.467-3.668,14.338c1.12,3.12,3.748,6.809,9.148,14.242
			c2.173,2.992,6.175,8.504,8.573,12.318c-1.828,1.967-3.788,3.97-4.831,5.012c-3.958,3.949-3.965,10.383-0.014,14.344
			c1.917,1.918,4.467,2.975,7.178,2.975c2.703,0,5.247-1.053,7.118-2.92c0.065-0.065,7.038-7,10.084-11.019
			c6.132-8.094-0.597-17.354-11.745-32.698c-1.277-1.758-2.975-4.093-4.357-6.074c0.553-0.623,1.249-1.378,2.127-2.286
			c15.737,21.788,40.625,34.623,67.706,34.623c27.266,0,52.252-12.965,67.972-34.972c1.038,1.067,1.841,1.936,2.463,2.635
			c-1.304,1.871-2.896,4.063-4.188,5.842l-0.168,0.233c-11.148,15.345-17.877,24.606-11.746,32.698
			c2.653,3.499,8.314,9.244,10.037,10.973c1.915,1.911,4.458,2.965,7.163,2.965c2.717,0,5.268-1.059,7.181-2.979
			c3.946-3.956,3.94-10.386-0.01-14.336c-1.05-1.052-3.015-3.058-4.835-5.016c2.459-3.91,6.6-9.603,8.62-12.381
			c5.363-7.39,7.991-11.078,9.102-14.184c1.385-3.866,1.072-7.909-3.673-14.336c3.08,2.051,6.305,4.013,7.588,4.784
			c1.576,0.945,3.379,1.445,5.211,1.445c3.547,0,6.884-1.89,8.705-4.931c1.391-2.32,1.794-5.046,1.136-7.676
			c-0.659-2.631-2.301-4.846-4.62-6.233c-0.958-0.577-3.492-2.131-5.901-3.699c1.412-4.304,3.976-10.647,5.368-14.092
			c3.327-8.235,5.078-12.687,5.402-15.964c0.659-6.56-1.725-13.404-37.185-30.498c-1.025-6.875-2.988-13.5-5.856-19.778
			c10.253-5.453,17.127-10.019,20.947-13.904c4.305-4.374,4.628-7.672,4.337-10.589c-0.329-3.287-2.081-7.734-5.428-16.016
			c-1.385-3.433-3.938-9.755-5.342-14.04c2.409-1.573,4.943-3.124,5.902-3.697c4.794-2.876,6.354-9.118,3.478-13.917
			c-1.805-3.007-5.176-4.875-8.795-4.875c-1.819,0-3.588,0.48-5.171,1.428c-2.025,1.222-8.905,5.423-12.341,8.191
			c-7.904,6.367-3.616,16.979,3.489,34.559l0.061,0.151c0.839,2.078,1.874,4.645,2.699,6.809c-2.924,1.999-7.96,5.018-14.802,8.654
			c-2.68-3.157-5.626-6.097-8.804-8.782c-0.7-3.756-1.841-7.407-3.403-10.899c0.783-4.829-1.738-10.901-6.993-16.49
			c-5.423-5.764-11.946-8.824-16.921-7.855c-3.948-1.856-8.084-3.158-12.357-3.894c0.07-0.438,0.138-0.881,0.206-1.329
			c0.489-3.137,0.993-6.382,1.942-9.203c1.552-4.618,3.813-8.589,6.55-11.58c0.001,0.228,0.012,0.457,0.031,0.688
			c-0.126,0.409-0.228,0.826-0.308,1.249c-1.063,5.629,1.852,12.146,5.289,15.199c2.893,2.567,6.96,4.039,11.16,4.039
			c0.395,0,0.788-0.013,1.175-0.037c4.401-0.281,8.282-2.11,10.932-5.152c6.434-7.401,4.097-19.02-1.759-25.541
			c-4.216-4.691-10.367-7.383-16.878-7.383c-4.543,0-8.884,1.307-12.55,3.779c-6.591,4.441-11.897,11.879-14.942,20.942
			c-1.084,3.224-1.686,6.523-2.171,9.56c-0.498-3.127-1.082-6.334-2.167-9.561c-3.05-9.066-8.357-16.506-14.944-20.941
			c-3.668-2.473-8.007-3.781-12.55-3.781c-6.512,0-12.663,2.691-16.878,7.387c-5.853,6.521-8.193,18.141-1.756,25.544
			c2.646,3.037,6.527,4.866,10.922,5.147c4.605,0.293,9.173-1.193,12.338-4c3.438-3.048,6.357-9.565,5.295-15.199
			c-0.08-0.427-0.185-0.847-0.31-1.257c0.019-0.229,0.028-0.457,0.03-0.684c2.736,2.99,4.997,6.964,6.551,11.584
			c0.952,2.824,1.455,6.073,1.949,9.253l0.031,0.202c0.125,0.804,0.252,1.621,0.389,2.445c-2.238,0.679-4.428,1.518-6.555,2.515
			c-4.978-0.946-11.465,2.124-16.866,7.866c-5.191,5.517-7.721,11.545-7.007,16.356c-1.595,3.534-2.755,7.231-3.465,11.031
			c-3.099,2.619-5.982,5.487-8.613,8.563c-6.632-3.538-11.529-6.479-14.394-8.436c0.884-2.32,1.993-5.057,2.762-6.957
			c7.103-17.584,11.39-28.196,3.484-34.565c-3.556-2.863-10.92-7.334-12.404-8.227c-1.523-0.908-3.289-1.388-5.105-1.388
			c-3.62,0-6.99,1.869-8.797,4.88c-1.392,2.321-1.796,5.046-1.139,7.675c0.658,2.632,2.301,4.847,4.62,6.235
			c1.032,0.619,3.527,2.15,5.901,3.698c-1.408,4.293-3.967,10.626-5.367,14.092c-3.323,8.225-5.073,12.671-5.404,15.967
			c-0.672,6.713,3.203,12.715,24.801,24.233c-2.972,6.444-4.988,13.263-6.014,20.346c-34.866,16.881-37.197,23.67-36.544,30.188
			C4.941,163.135,6.69,167.58,10.014,175.811z M36.934,195.807c-0.229,0.223-0.454,0.443-0.677,0.66
			c0.121-0.572,0.202-1.166,0.247-1.781C36.644,195.059,36.788,195.434,36.934,195.807z M28.758,168.055
			c-0.839-2.075-1.873-4.638-2.698-6.802c1.379-0.941,3.233-2.114,5.538-3.479c-0.253,2.507-0.379,5.075-0.379,7.693
			c0,3.484,0.213,6.941,0.638,10.355C30.916,173.396,29.871,170.811,28.758,168.055z"/>
		<path style="fill:#6E6E6E;" d="M197.489,156.814c2.602,1.525,4.673,2.827,6.178,3.854c-0.884,2.319-1.991,5.056-2.762,6.959
			c-1.474,3.65-2.827,7.001-3.975,10.075c0.651-4.213,0.98-8.491,0.98-12.816C197.91,162.14,197.77,159.443,197.489,156.814z
			 M193.183,192.593c-0.025,1.164,0.064,2.257,0.281,3.284c-0.358-0.35-0.725-0.706-1.101-1.068
			C192.648,194.073,192.92,193.333,193.183,192.593z M150.651,22.779c1.129,2.624,1.225,5.633-0.037,7.085
			c-0.532,0.611-1.52,1.006-2.694,1.083c-1.021,0.063-2.037-0.123-2.828-0.49C148.087,29.065,150.256,26.19,150.651,22.779z
			 M74.71,30.948c-1.188-0.078-2.174-0.473-2.704-1.082c-1.265-1.453-1.171-4.462-0.041-7.085c0.396,3.408,2.564,6.283,5.559,7.675
			c-0.614,0.286-1.44,0.503-2.426,0.503C74.966,30.959,74.833,30.956,74.71,30.948z M9.504,175.23
			c1.287,3.182,3.925,9.701,5.367,14.09c-2.407,1.567-4.94,3.119-5.898,3.695c-2.326,1.394-3.969,3.61-4.623,6.235
			c-0.658,2.631-0.252,5.359,1.142,7.679c1.822,3.04,5.156,4.928,8.7,4.928c1.835,0,3.645-0.505,5.233-1.458
			c1.277-0.769,4.489-2.723,7.563-4.769c-4.751,6.43-5.056,10.467-3.667,14.337c1.12,3.122,3.749,6.811,9.149,14.242
			c2.174,2.993,6.175,8.504,8.573,12.317c-1.828,1.969-3.788,3.971-4.831,5.013c-3.958,3.95-3.965,10.385-0.014,14.345
			c1.918,1.919,4.467,2.975,7.178,2.975c2.703,0,5.241-1.058,7.119-2.919c0.064-0.065,7.038-7.001,10.083-11.019
			c6.131-8.094-0.597-17.355-11.745-32.699c-1.276-1.756-2.975-4.091-4.357-6.073c0.553-0.623,1.25-1.379,2.127-2.288
			c15.737,21.79,40.625,34.624,67.707,34.624c27.265,0,52.251-12.964,67.971-34.971c1.037,1.065,1.842,1.936,2.463,2.635
			c-1.304,1.869-2.895,4.064-4.188,5.841l-0.168,0.234c-11.147,15.344-17.878,24.606-11.746,32.699
			c2.653,3.498,8.314,9.244,10.037,10.972c1.914,1.911,4.458,2.964,7.163,2.964c2.717,0,5.268-1.057,7.181-2.978
			c3.945-3.955,3.94-10.387-0.01-14.336c-1.05-1.051-3.015-3.059-4.835-5.018c2.459-3.908,6.6-9.601,8.62-12.38
			c5.363-7.389,7.99-11.077,9.102-14.183c1.384-3.868,1.072-7.911-3.673-14.336c3.081,2.051,6.305,4.012,7.589,4.782
			c1.575,0.946,3.378,1.446,5.21,1.446c3.547,0,6.884-1.89,8.705-4.931c1.391-2.32,1.793-5.047,1.136-7.675
			c-0.659-2.633-2.301-4.847-4.62-6.235c-0.959-0.577-3.491-2.13-5.901-3.698c1.412-4.303,3.976-10.647,5.369-14.092
			c3.326-8.235,5.078-12.687,5.401-15.966c0.659-6.557-1.725-13.401-37.186-30.497c-1.025-6.873-2.987-13.499-5.855-19.778
			c10.253-5.453,17.127-10.018,20.947-13.902c4.304-4.376,4.628-7.673,4.338-10.591c-0.33-3.287-2.081-7.735-5.428-16.016
			c-1.386-3.433-3.938-9.755-5.343-14.04c2.41-1.572,4.942-3.122,5.902-3.697c4.794-2.876,6.354-9.118,3.478-13.916
			c-1.806-3.008-5.175-4.876-8.795-4.876c-1.82,0-3.588,0.481-5.171,1.428c-2.026,1.222-8.904,5.423-12.341,8.192
			c-7.904,6.367-3.616,16.981,3.488,34.559l0.062,0.15c0.839,2.078,1.874,4.645,2.7,6.811c-2.925,1.997-7.961,5.017-14.803,8.653
			c-2.68-3.157-5.626-6.097-8.804-8.782c-0.7-3.755-1.841-7.407-3.402-10.899c0.781-4.828-1.739-10.902-6.994-16.49
			c-5.423-5.764-11.946-8.824-16.92-7.855c-3.948-1.856-8.085-3.159-12.358-3.895c0.069-0.439,0.138-0.881,0.206-1.328
			c0.488-3.137,0.993-6.383,1.941-9.202c1.553-4.62,3.813-8.59,6.551-11.581c0.001,0.227,0.012,0.457,0.031,0.688
			c-0.126,0.409-0.228,0.826-0.308,1.249c-1.064,5.628,1.852,12.147,5.289,15.199c2.893,2.567,6.96,4.039,11.16,4.039
			c0.394,0,0.788-0.013,1.175-0.037c4.401-0.282,8.282-2.11,10.932-5.153c6.433-7.4,4.097-19.018-1.758-25.54
			c-4.217-4.691-10.367-7.384-16.88-7.384c-4.542,0-8.883,1.309-12.548,3.779c-6.592,4.44-11.898,11.879-14.943,20.943
			c-1.084,3.223-1.687,6.522-2.17,9.559c-0.499-3.127-1.083-6.333-2.168-9.561c-3.05-9.066-8.357-16.504-14.944-20.941
			c-3.667-2.472-8.007-3.781-12.55-3.781c-6.512,0-12.663,2.693-16.878,7.387c-5.854,6.522-8.193,18.142-1.756,25.544
			c2.646,3.038,6.528,4.866,10.921,5.147c4.606,0.294,9.175-1.192,12.339-3.999c3.438-3.049,6.357-9.566,5.295-15.2
			c-0.081-0.426-0.184-0.845-0.31-1.256c0.02-0.229,0.029-0.457,0.03-0.684c2.736,2.99,4.997,6.963,6.551,11.584
			c0.951,2.824,1.455,6.072,1.949,9.254l0.031,0.201c0.125,0.804,0.252,1.621,0.389,2.446c-2.238,0.677-4.429,1.517-6.555,2.514
			c-4.978-0.947-11.465,2.123-16.866,7.866c-5.191,5.516-7.721,11.544-7.007,16.355c-1.594,3.534-2.755,7.232-3.465,11.032
			c-3.099,2.62-5.982,5.486-8.613,8.563c-6.632-3.536-11.529-6.478-14.395-8.435c0.884-2.32,1.992-5.057,2.763-6.958
			c7.103-17.582,11.389-28.195,3.483-34.563c-3.556-2.864-10.918-7.338-12.404-8.229c-1.521-0.911-3.289-1.387-5.105-1.387
			c-3.62,0-6.99,1.868-8.797,4.879c-1.392,2.321-1.796,5.048-1.138,7.677c0.658,2.63,2.301,4.846,4.619,6.233
			c1.032,0.62,3.527,2.15,5.901,3.698c-1.408,4.293-3.967,10.627-5.367,14.094c-3.323,8.224-5.073,12.669-5.403,15.966
			c-0.673,6.712,3.202,12.714,24.8,24.233c-2.972,6.443-4.988,13.262-6.014,20.345C5.779,145.955,3.447,152.744,4.102,159.261
			C4.432,162.553,6.181,166.999,9.504,175.23z M36.424,195.226c-0.229,0.222-0.454,0.441-0.676,0.659
			c0.12-0.572,0.201-1.166,0.246-1.78C36.135,194.479,36.278,194.853,36.424,195.226z M28.247,167.473
			c-0.837-2.075-1.872-4.638-2.697-6.802c1.379-0.941,3.233-2.114,5.537-3.477c-0.252,2.505-0.378,5.074-0.378,7.692
			c0,3.485,0.213,6.94,0.638,10.355C30.406,172.815,29.362,170.23,28.247,167.473z"/>
		<path style="fill:#606060;" d="M196.98,156.232c2.603,1.525,4.673,2.827,6.178,3.854c-0.884,2.319-1.991,5.056-2.762,6.959
			c-1.474,3.65-2.826,7.001-3.975,10.075c0.651-4.214,0.98-8.492,0.98-12.817C197.4,161.558,197.26,158.862,196.98,156.232z
			 M192.673,192.011c-0.025,1.164,0.065,2.257,0.281,3.285c-0.358-0.351-0.725-0.707-1.101-1.068
			C192.138,193.491,192.41,192.752,192.673,192.011z M150.142,22.199c1.129,2.623,1.225,5.632-0.037,7.084
			c-0.532,0.61-1.52,1.006-2.695,1.082c-1.02,0.063-2.036-0.122-2.827-0.489C147.576,28.484,149.746,25.608,150.142,22.199z
			 M74.199,30.366c-1.187-0.077-2.172-0.473-2.703-1.081c-1.265-1.454-1.171-4.462-0.041-7.084c0.396,3.408,2.564,6.283,5.559,7.674
			c-0.614,0.287-1.44,0.503-2.426,0.503C74.456,30.378,74.323,30.374,74.199,30.366z M8.994,174.648
			c1.287,3.181,3.926,9.701,5.367,14.09c-2.407,1.567-4.94,3.12-5.898,3.695c-2.326,1.394-3.969,3.609-4.623,6.234
			c-0.658,2.632-0.252,5.36,1.142,7.68c1.822,3.04,5.157,4.928,8.7,4.928c1.835,0,3.645-0.504,5.234-1.459
			c1.276-0.768,4.488-2.723,7.562-4.768c-4.75,6.43-5.056,10.467-3.667,14.337c1.12,3.121,3.749,6.809,9.149,14.242
			c2.173,2.993,6.174,8.504,8.572,12.318c-1.828,1.967-3.788,3.97-4.831,5.012c-3.958,3.95-3.964,10.384-0.014,14.345
			c1.918,1.918,4.467,2.976,7.178,2.976c2.703,0,5.247-1.053,7.119-2.921c0.065-0.064,7.038-6.999,10.083-11.018
			c6.131-8.094-0.597-17.354-11.745-32.698c-1.276-1.757-2.975-4.092-4.357-6.074c0.553-0.622,1.25-1.377,2.127-2.287
			c15.738,21.79,40.625,34.624,67.707,34.624c27.265,0,52.251-12.965,67.971-34.972c1.037,1.067,1.842,1.936,2.463,2.635
			c-1.304,1.871-2.896,4.064-4.187,5.843l-0.169,0.233c-11.148,15.345-17.878,24.606-11.746,32.698
			c2.653,3.498,8.315,9.244,10.037,10.972c1.914,1.912,4.458,2.966,7.163,2.966c2.717,0,5.268-1.059,7.181-2.979
			c3.945-3.956,3.94-10.387-0.01-14.337c-1.05-1.051-3.014-3.058-4.835-5.016c2.459-3.909,6.6-9.602,8.62-12.381
			c5.363-7.389,7.99-11.077,9.102-14.184c1.384-3.867,1.072-7.91-3.673-14.336c3.081,2.051,6.306,4.012,7.588,4.783
			c1.576,0.946,3.379,1.446,5.211,1.446c3.548,0,6.884-1.89,8.705-4.932c1.391-2.32,1.793-5.045,1.136-7.675
			c-0.659-2.632-2.301-4.846-4.619-6.234c-0.96-0.576-3.493-2.13-5.901-3.698c1.411-4.304,3.976-10.647,5.367-14.092
			c3.327-8.235,5.079-12.687,5.402-15.965c0.66-6.559-1.725-13.403-37.186-30.498c-1.024-6.874-2.987-13.5-5.855-19.777
			c10.252-5.454,17.126-10.019,20.946-13.904c4.304-4.375,4.629-7.673,4.338-10.59c-0.33-3.287-2.081-7.735-5.428-16.016
			c-1.385-3.433-3.938-9.754-5.343-14.041c2.41-1.571,4.942-3.122,5.902-3.696c4.794-2.875,6.355-9.118,3.477-13.917
			c-1.806-3.008-5.175-4.875-8.795-4.875c-1.82,0-3.588,0.48-5.171,1.427c-2.026,1.223-8.905,5.425-12.341,8.192
			c-7.904,6.368-3.616,16.98,3.488,34.559l0.062,0.152c0.839,2.077,1.874,4.644,2.699,6.809c-2.923,1.999-7.96,5.017-14.802,8.653
			c-2.679-3.157-5.626-6.097-8.803-8.781c-0.701-3.756-1.842-7.407-3.404-10.899c0.783-4.829-1.738-10.902-6.993-16.49
			c-5.422-5.765-11.946-8.825-16.92-7.855c-3.949-1.857-8.085-3.159-12.358-3.894c0.069-0.439,0.138-0.882,0.207-1.329
			c0.487-3.138,0.992-6.383,1.94-9.203c1.553-4.619,3.813-8.59,6.552-11.581c0.001,0.229,0.011,0.457,0.031,0.688
			c-0.126,0.41-0.229,0.827-0.309,1.25c-1.064,5.627,1.853,12.146,5.289,15.198c2.893,2.568,6.96,4.04,11.16,4.04
			c0.394,0,0.788-0.013,1.175-0.038c4.401-0.282,8.282-2.11,10.932-5.151c6.433-7.402,4.097-19.021-1.758-25.541
			c-4.217-4.692-10.368-7.384-16.88-7.384c-4.542,0-8.882,1.308-12.548,3.779c-6.592,4.44-11.898,11.878-14.943,20.942
			c-1.084,3.224-1.687,6.523-2.17,9.561c-0.499-3.127-1.083-6.335-2.168-9.563c-3.05-9.065-8.357-16.504-14.943-20.94
			C90.02,5.492,85.68,4.184,81.137,4.184c-6.512,0-12.663,2.692-16.877,7.387c-5.856,6.522-8.194,18.141-1.757,25.544
			c2.646,3.037,6.527,4.865,10.921,5.147c4.606,0.293,9.174-1.192,12.34-4c3.437-3.047,6.356-9.565,5.294-15.199
			c-0.081-0.426-0.184-0.846-0.31-1.257c0.019-0.229,0.029-0.456,0.03-0.684c2.736,2.99,4.997,6.963,6.551,11.584
			c0.951,2.825,1.455,6.074,1.949,9.254l0.032,0.202c0.125,0.804,0.252,1.62,0.388,2.445c-2.238,0.678-4.429,1.518-6.555,2.515
			c-4.978-0.947-11.465,2.122-16.866,7.865c-5.191,5.518-7.721,11.545-7.007,16.355c-1.595,3.535-2.755,7.231-3.464,11.033
			c-3.1,2.619-5.983,5.485-8.614,8.563c-6.632-3.538-11.529-6.479-14.395-8.437c0.884-2.319,1.992-5.056,2.763-6.958
			c7.103-17.582,11.389-28.195,3.483-34.563c-3.556-2.863-10.92-7.335-12.404-8.228c-1.523-0.908-3.289-1.387-5.106-1.387
			c-3.619,0-6.99,1.868-8.796,4.879c-1.392,2.321-1.797,5.047-1.139,7.676c0.658,2.632,2.301,4.846,4.619,6.234
			c1.033,0.62,3.528,2.149,5.901,3.697c-1.408,4.293-3.967,10.628-5.367,14.094c-3.323,8.225-5.073,12.67-5.403,15.966
			c-0.673,6.713,3.202,12.715,24.8,24.234c-2.972,6.443-4.988,13.263-6.013,20.346C5.27,145.374,2.938,152.163,3.592,158.681
			C3.922,161.972,5.671,166.417,8.994,174.648z M35.914,194.645c-0.229,0.222-0.454,0.442-0.676,0.659
			c0.12-0.572,0.201-1.166,0.246-1.781C35.624,193.896,35.769,194.27,35.914,194.645z M27.737,166.892
			c-0.837-2.075-1.872-4.638-2.696-6.802c1.378-0.941,3.233-2.114,5.536-3.479c-0.252,2.507-0.378,5.074-0.378,7.692
			c0,3.485,0.213,6.941,0.638,10.355C29.896,172.233,28.852,169.648,27.737,166.892z"/>
	</g>
	<path style="fill:#FFFFFF;" d="M8.994,174.648c1.287,3.181,3.926,9.701,5.367,14.09c-2.407,1.567-4.94,3.12-5.898,3.695
		c-2.326,1.394-3.969,3.609-4.623,6.234c-0.658,2.632-0.252,5.36,1.142,7.68c1.822,3.04,5.157,4.928,8.7,4.928
		c1.835,0,3.645-0.504,5.234-1.459c1.276-0.768,4.488-2.723,7.562-4.768c-4.75,6.43-5.056,10.467-3.667,14.337
		c1.12,3.121,3.749,6.809,9.149,14.242c2.173,2.993,6.174,8.504,8.572,12.318c-1.828,1.967-3.788,3.97-4.831,5.012
		c-3.958,3.95-3.964,10.384-0.014,14.345c1.918,1.918,4.467,2.976,7.178,2.976c2.703,0,5.247-1.053,7.119-2.921
		c0.065-0.064,7.038-6.999,10.083-11.018c6.131-8.094-0.597-17.354-11.745-32.698c-1.276-1.757-2.975-4.092-4.357-6.074
		c0.553-0.622,1.25-1.377,2.127-2.287c15.738,21.79,40.625,34.624,67.707,34.624c27.265,0,52.251-12.965,67.971-34.972
		c1.037,1.067,1.842,1.936,2.463,2.635c-1.304,1.871-2.896,4.064-4.187,5.843l-0.169,0.233
		c-11.148,15.345-17.878,24.606-11.746,32.698c2.653,3.498,8.315,9.244,10.037,10.972c1.914,1.912,4.458,2.966,7.163,2.966
		c2.717,0,5.268-1.059,7.181-2.979c3.945-3.956,3.94-10.387-0.01-14.337c-1.05-1.051-3.014-3.058-4.835-5.016
		c2.459-3.909,6.6-9.602,8.62-12.381c5.363-7.389,7.99-11.077,9.102-14.184c1.384-3.867,1.072-7.91-3.673-14.336
		c3.081,2.051,6.306,4.012,7.588,4.783c1.576,0.946,3.379,1.446,5.211,1.446c3.548,0,6.884-1.89,8.705-4.932
		c1.391-2.32,1.793-5.045,1.136-7.675c-0.659-2.632-2.301-4.846-4.619-6.234c-0.96-0.576-3.493-2.13-5.901-3.698
		c1.411-4.304,3.976-10.647,5.367-14.092c3.327-8.235,5.079-12.687,5.402-15.965c0.66-6.559-1.725-13.403-37.186-30.498
		c-1.024-6.874-2.987-13.5-5.855-19.777c10.252-5.454,17.126-10.019,20.946-13.904c4.304-4.375,4.629-7.673,4.338-10.59
		c-0.33-3.287-2.081-7.735-5.428-16.016c-1.385-3.433-3.938-9.754-5.343-14.041c2.41-1.571,4.942-3.122,5.902-3.696
		c4.794-2.875,6.355-9.118,3.477-13.917c-1.806-3.008-5.175-4.875-8.795-4.875c-1.82,0-3.588,0.48-5.171,1.427
		c-2.026,1.223-8.905,5.425-12.341,8.192c-7.904,6.368-3.616,16.98,3.488,34.559l0.062,0.152c0.839,2.077,1.874,4.644,2.699,6.809
		c-2.923,1.999-7.96,5.017-14.802,8.653c-2.679-3.157-5.626-6.097-8.803-8.781c-0.701-3.756-1.842-7.407-3.404-10.899
		c0.783-4.829-1.738-10.902-6.993-16.49c-5.422-5.765-11.946-8.825-16.92-7.855c-3.949-1.857-8.085-3.159-12.358-3.894
		c0.069-0.439,0.138-0.882,0.207-1.329c0.487-3.138,0.992-6.383,1.94-9.203c1.553-4.619,3.813-8.59,6.552-11.581
		c0.001,0.229,0.011,0.457,0.031,0.688c-0.126,0.41-0.229,0.827-0.309,1.25c-1.064,5.627,1.853,12.146,5.289,15.198
		c2.893,2.568,6.96,4.04,11.16,4.04c0.394,0,0.788-0.013,1.175-0.038c4.401-0.282,8.282-2.11,10.932-5.151
		c6.433-7.402,4.097-19.021-1.758-25.541c-4.217-4.692-10.368-7.384-16.88-7.384c-4.542,0-8.882,1.308-12.548,3.779
		c-6.592,4.44-11.898,11.878-14.943,20.942c-1.084,3.224-1.687,6.523-2.17,9.561c-0.499-3.127-1.083-6.335-2.168-9.563
		c-3.05-9.065-8.357-16.504-14.943-20.94C90.02,5.492,85.68,4.184,81.137,4.184c-6.512,0-12.663,2.692-16.877,7.387
		c-5.856,6.522-8.194,18.141-1.757,25.544c2.646,3.037,6.527,4.865,10.921,5.147c4.606,0.293,9.174-1.192,12.34-4
		c3.437-3.047,6.356-9.565,5.294-15.199c-0.081-0.426-0.184-0.846-0.31-1.257c0.019-0.229,0.029-0.456,0.03-0.684
		c2.736,2.99,4.997,6.963,6.551,11.584c0.951,2.825,1.455,6.074,1.949,9.254l0.032,0.202c0.125,0.804,0.252,1.62,0.388,2.445
		c-2.238,0.678-4.429,1.518-6.555,2.515c-4.978-0.947-11.465,2.122-16.866,7.865c-5.191,5.518-7.721,11.545-7.007,16.355
		c-1.595,3.535-2.755,7.231-3.464,11.033c-3.1,2.619-5.983,5.485-8.614,8.563c-6.632-3.538-11.529-6.479-14.395-8.437
		c0.884-2.319,1.992-5.056,2.763-6.958c7.103-17.582,11.389-28.195,3.483-34.563c-3.556-2.863-10.92-7.335-12.404-8.228
		c-1.523-0.908-3.289-1.387-5.106-1.387c-3.619,0-6.99,1.868-8.796,4.879c-1.392,2.321-1.797,5.047-1.139,7.676
		c0.658,2.632,2.301,4.846,4.619,6.234c1.033,0.62,3.528,2.149,5.901,3.697c-1.408,4.293-3.967,10.628-5.367,14.094
		c-3.323,8.225-5.073,12.67-5.403,15.966c-0.673,6.713,3.202,12.715,24.8,24.234c-2.972,6.443-4.988,13.263-6.013,20.346
		C5.27,145.374,2.938,152.163,3.592,158.681C3.922,161.972,5.671,166.417,8.994,174.648z M35.914,194.645
		c-0.229,0.222-0.454,0.442-0.676,0.659c0.12-0.572,0.201-1.166,0.246-1.781C35.624,193.896,35.769,194.27,35.914,194.645z
		 M27.737,166.892c-0.837-2.075-1.872-4.638-2.696-6.802c1.378-0.941,3.233-2.114,5.536-3.479c-0.252,2.507-0.378,5.074-0.378,7.692
		c0,3.485,0.213,6.941,0.638,10.355C29.896,172.233,28.852,169.648,27.737,166.892z M192.673,192.011
		c-0.025,1.164,0.065,2.257,0.281,3.285c-0.358-0.351-0.725-0.707-1.101-1.068C192.138,193.491,192.41,192.752,192.673,192.011z
		 M196.98,156.232c2.603,1.525,4.673,2.827,6.178,3.854c-0.884,2.319-1.991,5.056-2.762,6.959c-1.474,3.65-2.826,7.001-3.975,10.075
		c0.651-4.214,0.98-8.492,0.98-12.817C197.4,161.558,197.26,158.862,196.98,156.232z M150.142,22.199
		c1.129,2.623,1.225,5.632-0.037,7.084c-0.532,0.61-1.52,1.006-2.695,1.082c-1.02,0.063-2.036-0.122-2.827-0.489
		C147.576,28.484,149.746,25.608,150.142,22.199z M74.199,30.366c-1.187-0.077-2.172-0.473-2.703-1.081
		c-1.265-1.454-1.171-4.462-0.041-7.084c0.396,3.408,2.564,6.283,5.559,7.674c-0.614,0.287-1.44,0.503-2.426,0.503
		C74.456,30.378,74.323,30.374,74.199,30.366z"/>
	<g>
		<g>
			<g>
				<g>
					<path style="fill:#654200;" d="M13.682,205.314c-1.42,0-2.805-0.725-3.59-2.032c-1.186-1.98-0.545-4.548,1.438-5.737
						c1.872-1.123,6.778-4.153,9.664-6.249c-0.511-3.637-4.461-13.414-6.672-18.884c-3.027-7.491-4.751-11.849-4.998-14.327
						c-0.268-2.676-0.825-8.242,37.891-26.462c2.095-0.982,4.582-0.084,5.563,2.005c0.986,2.088,0.086,4.58-2.002,5.563
						c-13.857,6.521-29.772,15.359-32.943,18.896c0.633,2.255,2.686,7.337,4.243,11.191c7.209,17.847,9.369,24.387,5.273,27.685
						c-3.477,2.802-11.384,7.553-11.718,7.755C15.158,205.118,14.415,205.314,13.682,205.314z"/>
					<path style="fill:#4F2B12;" d="M13.682,206.425c-1.849,0-3.59-0.985-4.541-2.571c-0.729-1.213-0.938-2.638-0.596-4.008
						c0.342-1.371,1.2-2.526,2.412-3.253c1.581-0.948,6.086-3.723,9.022-5.792c-0.821-3.95-4.473-12.988-6.49-17.973
						c-3.063-7.584-4.808-12.002-5.072-14.633c-0.316-3.152-0.902-9.02,38.524-27.577c2.574-1.207,5.84-0.019,7.042,2.538
						c1.242,2.638,0.106,5.798-2.535,7.038c-14.248,6.707-28.523,14.808-32.164,18.202c0.769,2.414,2.602,6.956,3.972,10.351
						c7.013,17.354,9.886,25.14,4.989,29.082c-3.329,2.683-10.438,6.995-11.829,7.832C15.576,206.165,14.636,206.425,13.682,206.425
						z M49.195,132.336c-0.454,0-0.894,0.1-1.308,0.295c-38.008,17.885-37.463,23.303-37.26,25.344
						c0.233,2.323,2.022,6.842,4.924,14.021c2.322,5.749,6.211,15.37,6.743,19.146l0.093,0.662l-0.541,0.39
						c-2.847,2.071-7.62,5.029-9.748,6.304c-0.702,0.423-1.199,1.093-1.399,1.889c-0.199,0.796-0.076,1.62,0.349,2.323
						c0.843,1.408,2.787,1.907,4.208,1.057c0.852-0.514,8.31-5.02,11.596-7.667c3.489-2.812,1.235-9.474-5.607-26.404
						c-1.647-4.079-3.64-9.017-4.286-11.306l-0.164-0.591l0.407-0.453c3.393-3.779,19.599-12.71,33.302-19.159
						c1.531-0.721,2.19-2.552,1.469-4.084C51.469,133.029,50.377,132.336,49.195,132.336z"/>
				</g>
				<g>
					<path style="fill:#654200;" d="M66.952,111.363c-0.597,0-1.202-0.127-1.78-0.398C26.457,92.75,27.014,87.181,27.279,84.508
						c0.251-2.481,1.975-6.841,4.999-14.328c2.215-5.472,6.163-15.247,6.676-18.885c-2.887-2.097-7.795-5.126-9.668-6.248
						c-1.981-1.19-2.624-3.759-1.434-5.737c1.187-1.979,3.754-2.621,5.735-1.437c0.336,0.202,8.244,4.952,11.718,7.752
						c4.096,3.302,1.939,9.843-5.273,27.687c-1.556,3.852-3.608,8.935-4.245,11.192c3.175,3.536,19.092,12.378,32.947,18.896
						c2.089,0.982,2.984,3.472,2.002,5.563C70.024,110.476,68.521,111.363,66.952,111.363z"/>
					<path style="fill:#4F2B12;" d="M66.952,112.475c-0.782,0-1.537-0.169-2.25-0.503c-39.429-18.55-38.843-24.423-38.527-27.575
						c0.264-2.632,2.011-7.05,5.075-14.633c2.014-4.985,5.666-14.02,6.487-17.972c-2.952-2.083-7.447-4.849-9.022-5.794
						c-2.504-1.499-3.317-4.757-1.817-7.259c1.442-2.403,4.839-3.262,7.261-1.818c0.082,0.05,8.269,4.959,11.845,7.838
						c4.898,3.946,2.023,11.733-4.939,28.97c-1.39,3.431-3.244,8.025-4.021,10.465c3.641,3.396,17.918,11.498,32.165,18.199
						c2.64,1.244,3.776,4.401,2.537,7.044C70.87,111.282,68.991,112.475,66.952,112.475z M31.441,38.39
						c-1.091,0-2.075,0.558-2.639,1.493c-0.867,1.449-0.394,3.34,1.055,4.21c1.704,1.02,6.776,4.142,9.749,6.301l0.542,0.396
						l-0.097,0.66c-0.489,3.489-3.734,11.714-6.741,19.148c-2.9,7.178-4.69,11.695-4.924,14.021
						c-0.205,2.04-0.745,7.461,37.26,25.342c1.508,0.712,3.39,0.011,4.087-1.469c0.719-1.532,0.059-3.363-1.472-4.085
						c-13.703-6.448-29.906-15.38-33.3-19.161l-0.409-0.453l0.166-0.589c0.652-2.321,2.665-7.304,4.283-11.308
						c6.844-16.929,9.097-23.593,5.607-26.407c-3.459-2.782-11.51-7.611-11.592-7.66C32.539,38.541,31.992,38.39,31.441,38.39z"/>
				</g>
				<g>
					<path style="fill:#654200;" d="M42.865,262.316c-1.073,0-2.143-0.407-2.961-1.229c-1.63-1.633-1.628-4.279,0.009-5.911
						c1.545-1.546,5.575-5.67,7.866-8.401c-1.375-3.407-7.576-11.939-11.044-16.714c-4.745-6.532-7.474-10.345-8.313-12.686
						c-0.905-2.532-2.793-7.799,30.366-34.84c1.792-1.459,4.422-1.191,5.883,0.597c1.46,1.788,1.191,4.422-0.598,5.883
						c-11.867,9.68-25.173,22.105-27.396,26.303c1.161,2.034,4.381,6.47,6.825,9.831c11.314,15.573,14.99,21.398,11.813,25.591
						c-2.695,3.557-9.223,10.081-9.498,10.356C45.001,261.909,43.932,262.316,42.865,262.316z"/>
					<path style="fill:#4F2B12;" d="M42.865,263.428c-1.415,0-2.745-0.551-3.746-1.554c-2.063-2.066-2.058-5.421,0.008-7.483
						c1.628-1.626,5.115-5.21,7.354-7.803c-1.748-3.629-7.475-11.51-10.632-15.857c-4.959-6.825-7.581-10.495-8.472-12.982
						c-1.07-2.984-3.058-8.538,30.71-36.077c2.188-1.776,5.669-1.418,7.445,0.757c1.845,2.262,1.507,5.603-0.755,7.447
						c-12.204,9.951-24.1,21.266-26.81,25.441c1.349,2.184,4.258,6.186,6.433,9.175c10.928,15.043,15.599,21.905,11.802,26.918
						c-2.775,3.663-9.531,10.403-9.602,10.472C45.602,262.879,44.275,263.428,42.865,263.428z M61.432,182.706
						c-0.715,0-1.385,0.238-1.94,0.69c-32.552,26.543-30.716,31.672-30.024,33.601c0.788,2.195,3.479,5.957,8.168,12.413
						c3.652,5.027,9.748,13.419,11.174,16.948l0.25,0.621l-0.428,0.51c-2.242,2.67-6.172,6.711-7.934,8.474
						c-1.199,1.198-1.202,3.142-0.006,4.34c1.159,1.163,3.182,1.163,4.34,0.004c0.067-0.065,6.716-6.696,9.398-10.239
						c2.709-3.571-1.095-9.489-11.828-24.268c-2.403-3.304-5.689-7.83-6.891-9.931l-0.305-0.532l0.288-0.54
						c2.378-4.486,15.939-17.069,27.677-26.644c1.31-1.069,1.508-3.009,0.438-4.318C63.224,183.117,62.358,182.706,61.432,182.706z"
						/>
				</g>
			</g>
			<g>
				<g>
					<path style="fill:#654200;" d="M214.515,205.314c1.42,0,2.809-0.725,3.589-2.032c1.191-1.98,0.547-4.548-1.431-5.737
						c-1.875-1.123-6.784-4.153-9.671-6.249c0.512-3.637,4.462-13.414,6.675-18.884c3.026-7.491,4.748-11.849,5.001-14.327
						c0.265-2.676,0.823-8.242-37.895-26.462c-2.095-0.982-4.583-0.084-5.564,2.005c-0.98,2.088-0.087,4.58,2.004,5.563
						c13.854,6.521,29.77,15.359,32.947,18.896c-0.634,2.255-2.69,7.337-4.244,11.191c-7.215,17.847-9.372,24.387-5.279,27.685
						c3.477,2.802,11.386,7.553,11.724,7.755C213.044,205.118,213.781,205.314,214.515,205.314z"/>
					<path style="fill:#4F2B12;" d="M214.515,206.425c-0.954,0-1.892-0.26-2.716-0.755c-1.406-0.846-8.516-5.158-11.845-7.841
						c-4.896-3.942-2.022-11.729,4.939-28.968c1.415-3.498,3.25-8.051,4.022-10.465c-3.641-3.395-17.92-11.495-32.163-18.202
						c-1.282-0.601-2.25-1.663-2.728-2.994c-0.481-1.33-0.412-2.767,0.188-4.044c1.206-2.557,4.466-3.745,7.043-2.538
						c39.431,18.555,38.84,24.425,38.523,27.577c-0.261,2.631-2.01,7.049-5.073,14.633c-2.015,4.984-5.668,14.023-6.488,17.973
						c2.938,2.069,7.442,4.844,9.022,5.792c2.504,1.499,3.317,4.759,1.819,7.259C218.108,205.439,216.367,206.425,214.515,206.425z
						 M179.005,132.336c-1.186,0-2.275,0.693-2.778,1.766c-0.352,0.742-0.39,1.575-0.113,2.346c0.278,0.771,0.843,1.39,1.584,1.738
						c13.702,6.449,29.904,15.38,33.297,19.159l0.409,0.453l-0.165,0.591c-0.642,2.289-2.636,7.227-4.236,11.188
						c-6.889,17.048-9.145,23.71-5.655,26.521c3.286,2.646,10.742,7.153,11.584,7.657c1.454,0.871,3.376,0.361,4.222-1.047
						c0.87-1.451,0.396-3.342-1.054-4.212c-2.126-1.274-6.901-4.232-9.747-6.304l-0.542-0.39l0.095-0.662
						c0.529-3.776,4.418-13.397,6.745-19.146c2.898-7.179,4.687-11.697,4.92-14.021c0.205-2.041,0.748-7.459-37.26-25.344
						C179.895,132.436,179.454,132.336,179.005,132.336z"/>
				</g>
				<g>
					<path style="fill:#654200;" d="M161.247,111.363c0.597,0,1.199-0.127,1.777-0.398c38.717-18.215,38.162-23.784,37.894-26.457
						c-0.249-2.481-1.976-6.841-5.001-14.328c-2.209-5.472-6.157-15.247-6.671-18.885c2.887-2.097,7.79-5.126,9.666-6.248
						c1.979-1.19,2.621-3.759,1.437-5.737c-1.189-1.979-3.754-2.621-5.737-1.437c-0.334,0.202-8.242,4.952-11.718,7.752
						c-4.098,3.302-1.939,9.843,5.272,27.687c1.558,3.852,3.611,8.935,4.245,11.192c-3.177,3.536-19.093,12.378-32.946,18.896
						c-2.092,0.982-2.985,3.472-2.005,5.563C158.173,110.476,159.679,111.363,161.247,111.363z"/>
					<path style="fill:#4F2B12;" d="M161.247,112.475c-2.042,0-3.922-1.192-4.79-3.038c-1.243-2.643-0.107-5.8,2.535-7.044
						c14.243-6.701,28.522-14.802,32.164-18.199c-0.776-2.439-2.634-7.034-4.019-10.465c-6.966-17.236-9.839-25.023-4.943-28.968
						c3.576-2.881,11.762-7.79,11.843-7.84c2.424-1.448,5.821-0.585,7.262,1.815c1.502,2.505,0.686,5.763-1.814,7.262
						c-1.579,0.945-6.073,3.711-9.022,5.794c0.819,3.952,4.47,12.986,6.482,17.972c3.064,7.583,4.814,12.001,5.078,14.631
						c0.313,3.154,0.899,9.027-38.525,27.577C162.78,112.306,162.025,112.475,161.247,112.475z M196.755,38.39
						c-0.552,0-1.098,0.151-1.576,0.438c-0.077,0.049-8.133,4.878-11.592,7.663c-3.488,2.812-1.232,9.476,5.608,26.404
						c1.619,4.004,3.632,8.986,4.287,11.308l0.165,0.589l-0.408,0.453c-3.398,3.781-19.601,12.713-33.301,19.161
						c-1.532,0.722-2.192,2.553-1.472,4.085c0.697,1.479,2.581,2.181,4.085,1.469c38.005-17.881,37.463-23.302,37.26-25.344
						c-0.234-2.324-2.022-6.842-4.923-14.02c-3.007-7.434-6.254-15.658-6.744-19.148l-0.091-0.66l0.538-0.396
						c2.977-2.159,8.047-5.281,9.748-6.301c1.453-0.87,1.926-2.761,1.055-4.212C198.835,38.947,197.849,38.39,196.755,38.39z"/>
				</g>
				<g>
					<path style="fill:#654200;" d="M185.331,262.316c1.073,0,2.145-0.407,2.961-1.229c1.632-1.633,1.627-4.279-0.004-5.911
						c-1.549-1.546-5.577-5.67-7.868-8.401c1.375-3.407,7.572-11.939,11.04-16.714c4.748-6.532,7.475-10.345,8.316-12.686
						c0.906-2.532,2.795-7.799-30.368-34.84c-1.792-1.459-4.422-1.191-5.88,0.597c-1.461,1.788-1.194,4.422,0.593,5.883
						c11.87,9.68,25.175,22.105,27.4,26.303c-1.159,2.034-4.384,6.47-6.823,9.831c-11.314,15.573-14.996,21.398-11.818,25.591
						c2.696,3.557,9.222,10.081,9.501,10.356C183.196,261.909,184.265,262.316,185.331,262.316z"/>
					<path style="fill:#4F2B12;" d="M185.331,263.428c-1.408,0-2.737-0.549-3.735-1.546c-0.065-0.068-6.822-6.809-9.601-10.472
						c-3.797-5.011,0.877-11.875,11.806-26.918c2.17-2.989,5.082-6.991,6.427-9.175c-2.708-4.176-14.604-15.49-26.806-25.441
						c-2.262-1.845-2.602-5.186-0.758-7.447c1.777-2.175,5.26-2.533,7.447-0.757c33.766,27.539,31.778,33.093,30.711,36.077
						c-0.89,2.486-3.516,6.156-8.459,12.967c-3.173,4.362-8.897,12.243-10.645,15.872c2.238,2.593,5.729,6.177,7.355,7.803
						c2.061,2.063,2.065,5.417,0.005,7.483C188.079,262.877,186.746,263.428,185.331,263.428z M166.769,182.706
						c-0.928,0-1.797,0.411-2.382,1.129c-1.067,1.309-0.872,3.249,0.439,4.318c11.739,9.574,25.296,22.157,27.675,26.644l0.288,0.54
						l-0.305,0.532c-1.197,2.1-4.487,6.627-6.889,9.931c-10.731,14.778-14.534,20.696-11.83,24.268
						c2.687,3.543,9.332,10.174,9.4,10.239c1.159,1.161,3.182,1.159,4.341-0.004c1.193-1.198,1.193-3.142-0.005-4.34
						c-1.767-1.763-5.694-5.804-7.933-8.474l-0.432-0.51l0.253-0.621c1.423-3.529,7.521-11.921,11.163-16.936
						c4.7-6.469,7.391-10.23,8.177-12.422c0.689-1.933,2.526-7.062-30.025-33.605C168.148,182.944,167.482,182.706,166.769,182.706z
						"/>
				</g>
			</g>
		</g>
		<g>
			<g>
				<path style="fill:#654200;" d="M52.977,133.628c-0.98-2.089-3.468-2.987-5.563-2.005c-4.445,2.094-8.352,4.011-11.82,5.785
					c-0.901,3.601-1.719,7.214-2.407,10.847c5.533-3.047,11.848-6.268,17.788-9.064C53.063,138.208,53.963,135.716,52.977,133.628z"
					/>
				<path style="fill:#654200;" d="M68.734,103.399c-5.854-2.755-12.063-5.919-17.537-8.928c-1.511,2.396-3.091,4.749-4.629,7.127
					c4.885,2.682,10.969,5.774,18.603,9.366c0.578,0.271,1.184,0.398,1.78,0.398c1.569,0,3.072-0.888,3.784-2.4
					C71.719,106.871,70.823,104.382,68.734,103.399z"/>
				<path style="fill:#654200;" d="M64.672,183.132c-1.461-1.788-4.091-2.056-5.883-0.597c-8.972,7.314-15.361,13.026-19.914,17.531
					c0.079,0.2,0.157,0.409,0.234,0.588c1.042,2.42,2.475,4.785,4.115,7.019c5.481-5.512,13.446-12.618,20.85-18.658
					C65.863,187.554,66.132,184.92,64.672,183.132z"/>
			</g>
			<g>
				<path style="fill:#654200;" d="M192.45,137.331c-3.434-1.754-7.287-3.646-11.667-5.708c-2.095-0.982-4.583-0.084-5.564,2.005
					c-0.98,2.088-0.087,4.58,2.004,5.563c6.216,2.923,12.835,6.313,18.542,9.482C194.855,144.854,193.651,141.092,192.45,137.331z"
					/>
				<path style="fill:#654200;" d="M174.994,95.565c-4.956,2.673-10.386,5.412-15.529,7.834c-2.092,0.982-2.985,3.472-2.005,5.563
					c0.713,1.513,2.219,2.4,3.787,2.4c0.597,0,1.199-0.127,1.777-0.398c6.25-2.938,11.463-5.547,15.832-7.869
					C177.677,100.526,176.378,98.022,174.994,95.565z"/>
				<path style="fill:#654200;" d="M185.406,208.114c1.405-2.675,2.63-5.439,3.681-8.278c-4.536-4.47-10.86-10.109-19.679-17.301
					c-1.792-1.459-4.422-1.191-5.88,0.597c-1.461,1.788-1.194,4.422,0.593,5.883C171.73,195.218,179.911,202.54,185.406,208.114z"/>
			</g>
		</g>
		<g>
			<g>
				<g>
					<g>
						<path style="fill:#303338;" d="M106.968,54.019c-0.079,0-0.158-0.01-0.238-0.027c-0.6-0.129-0.978-0.722-0.847-1.32
							c0.298-1.372-0.13-3.036-0.543-4.651c-0.159-0.629-0.319-1.246-0.435-1.833c-0.32-1.647-0.575-3.31-0.834-4.972
							c-0.521-3.354-1.059-6.826-2.144-10.056c-2.555-7.598-6.885-13.754-12.191-17.33c-6.287-4.238-15.169-3.155-20.215,2.465
							c-3.784,4.215-5.408,11.893-1.683,16.176c1.396,1.601,3.541,2.573,6.047,2.736c2.72,0.172,5.412-0.66,7.185-2.235
							c1.885-1.67,3.584-5.702,3.039-8.596c-0.278-1.46-1.064-2.411-2.415-2.907c-0.574-0.212-0.87-0.851-0.659-1.429
							c0.214-0.574,0.851-0.867,1.426-0.657c2.087,0.769,3.41,2.351,3.832,4.581c0.709,3.763-1.363,8.557-3.747,10.67
							c-2.209,1.96-5.494,3.008-8.801,2.789c-3.104-0.199-5.797-1.442-7.585-3.494c-4.55-5.232-2.787-14.109,1.709-19.117
							c5.771-6.429,15.924-7.669,23.106-2.824c5.712,3.847,10.349,10.406,13.06,18.466c1.146,3.409,1.696,6.974,2.231,10.424
							c0.255,1.633,0.506,3.27,0.824,4.886c0.104,0.544,0.251,1.119,0.402,1.707c0.456,1.775,0.975,3.79,0.561,5.678
							C107.94,53.667,107.479,54.019,106.968,54.019z"/>
						<g>
							<path style="fill:#53575E;" d="M84.817,21.077c0,2.062-1.671,3.734-3.732,3.734s-3.734-1.673-3.734-3.734
								c0-2.063,1.673-3.733,3.734-3.733S84.817,19.015,84.817,21.077z"/>
							<path style="fill:#303338;" d="M81.085,25.922c-2.671,0-4.845-2.171-4.845-4.845c0-2.669,2.174-4.844,4.845-4.844
								c2.672,0,4.843,2.175,4.843,4.844C85.928,23.751,83.757,25.922,81.085,25.922z M81.085,18.455
								c-1.446,0-2.623,1.177-2.623,2.622c0,1.446,1.177,2.624,2.623,2.624c1.445,0,2.622-1.178,2.622-2.624
								C83.707,19.632,82.53,18.455,81.085,18.455z"/>
						</g>
					</g>
					<g>
						<path style="fill:#303338;" d="M114.627,54.019c-0.509,0-0.967-0.352-1.082-0.872c-0.414-1.888,0.101-3.902,0.563-5.682
							c0.148-0.586,0.296-1.159,0.403-1.703c0.314-1.616,0.568-3.253,0.819-4.886c0.534-3.45,1.091-7.015,2.235-10.424
							c2.709-8.06,7.344-14.616,13.057-18.466c7.181-4.841,17.334-3.605,23.109,2.824c4.497,5.008,6.254,13.885,1.706,19.117
							c-1.787,2.052-4.48,3.295-7.582,3.494c-3.307,0.218-6.597-0.829-8.805-2.789c-2.38-2.113-4.455-6.907-3.743-10.67
							c0.419-2.229,1.745-3.813,3.828-4.581c0.576-0.214,1.215,0.083,1.428,0.657c0.211,0.578-0.082,1.217-0.658,1.429
							c-1.35,0.496-2.14,1.447-2.414,2.907c-0.547,2.894,1.152,6.926,3.036,8.596c1.772,1.573,4.45,2.407,7.186,2.235
							c2.504-0.163,4.652-1.136,6.048-2.736c3.72-4.282,2.101-11.961-1.684-16.176c-5.052-5.62-13.931-6.705-20.215-2.465
							c-5.308,3.579-9.637,9.732-12.191,17.33c-1.086,3.229-1.623,6.701-2.145,10.056c-0.255,1.662-0.515,3.324-0.835,4.972
							c-0.114,0.587-0.271,1.2-0.434,1.833c-0.414,1.61-0.845,3.279-0.544,4.651c0.135,0.599-0.246,1.191-0.847,1.32
							C114.789,54.009,114.708,54.019,114.627,54.019z"/>
						<g>
							<path style="fill:#53575E;" d="M136.779,21.077c0,2.062,1.671,3.734,3.733,3.734c2.061,0,3.732-1.673,3.732-3.734
								c0-2.063-1.671-3.733-3.732-3.733C138.45,17.345,136.779,19.015,136.779,21.077z"/>
							<path style="fill:#303338;" d="M140.513,25.922c-2.67,0-4.844-2.171-4.844-4.845c0-2.669,2.174-4.844,4.844-4.844
								c2.671,0,4.843,2.175,4.843,4.844C145.355,23.751,143.184,25.922,140.513,25.922z M140.513,18.455
								c-1.446,0-2.622,1.177-2.622,2.622c0,1.446,1.176,2.624,2.622,2.624c1.445,0,2.621-1.178,2.621-2.624
								C143.134,19.632,141.958,18.455,140.513,18.455z"/>
						</g>
					</g>
				</g>
				<g>
					<g>
						<path style="fill:#2F3237;" d="M156.669,91.352c0-23.675-19.195-42.869-42.87-42.869c-23.676,0-42.864,19.194-42.864,42.869
							c0,23.673,19.188,32.926,42.864,32.926C137.474,124.277,156.669,115.024,156.669,91.352z"/>
						<path d="M113.799,125.389c-27.946,0-43.978-12.405-43.978-34.037c0-24.252,19.731-43.979,43.978-43.979
							c24.253,0,43.98,19.728,43.98,43.979C157.779,112.983,141.748,125.389,113.799,125.389z M113.799,49.594
							c-23.024,0-41.754,18.731-41.754,41.758c0,11.882,5.425,31.815,41.754,31.815c36.333,0,41.757-19.934,41.757-31.815
							C155.556,68.325,136.824,49.594,113.799,49.594z"/>
					</g>
					<g>
						<g>
							<path style="fill:#17191E;" d="M89.019,66.974c-4.837,5.143-10.635,7.539-12.956,5.354
								c-2.318-2.183-0.278-8.115,4.557-13.258c4.834-5.139,10.637-7.539,12.955-5.355C95.896,55.897,93.855,61.835,89.019,66.974z"
								/>
							<path style="fill:#6B6C6F;" d="M78.396,74.248c-1.254,0-2.326-0.382-3.097-1.106c-2.851-2.689-0.913-9.065,4.51-14.831
								c3.779-4.019,8.161-6.515,11.434-6.515c1.252,0,2.321,0.386,3.095,1.111c1.458,1.372,1.706,3.75,0.694,6.689
								c-0.911,2.65-2.761,5.541-5.204,8.139C86.05,71.753,81.669,74.248,78.396,74.248z M91.243,54.019
								c-2.601,0-6.545,2.337-9.814,5.813c-4.709,5.008-6.207,10.18-4.605,11.689c0.355,0.334,0.886,0.504,1.573,0.504
								c2.6,0,6.543-2.335,9.813-5.813c2.235-2.373,3.91-4.979,4.723-7.338c0.688-2.005,0.645-3.634-0.118-4.35
								C92.459,54.19,91.93,54.019,91.243,54.019z"/>
						</g>
						<path style="fill:#FFFFFF;" d="M83.535,61.817c-1.681,1.783-3.693,2.617-4.501,1.862c-0.803-0.76-0.095-2.821,1.585-4.609
							c1.679-1.784,3.692-2.62,4.5-1.862C85.927,57.968,85.215,60.031,83.535,61.817z"/>
					</g>
					<g>
						<g>
							<path style="fill:#17191E;" d="M138.653,66.974c4.839,5.143,10.639,7.539,12.96,5.354c2.318-2.183,0.278-8.115-4.558-13.258
								c-4.834-5.139-10.637-7.539-12.954-5.355C131.779,55.897,133.82,61.835,138.653,66.974z"/>
							<path style="fill:#6B6C6F;" d="M149.279,74.248L149.279,74.248c-3.272,0-7.654-2.495-11.432-6.513
								c-2.446-2.598-4.293-5.488-5.204-8.139c-1.012-2.941-0.764-5.317,0.694-6.689c0.772-0.725,1.842-1.111,3.095-1.111
								c3.271,0,7.653,2.496,11.434,6.513c5.423,5.768,7.363,12.144,4.51,14.83C151.605,73.866,150.533,74.248,149.279,74.248z
								 M136.433,54.019c-0.686,0-1.217,0.172-1.571,0.507c-0.761,0.716-0.806,2.345-0.118,4.35
								c0.814,2.358,2.488,4.965,4.724,7.337c3.27,3.479,7.212,5.813,9.813,5.813l0,0c0.688,0,1.217-0.17,1.573-0.504
								c1.6-1.51,0.105-6.682-4.605-11.691C142.978,56.355,139.032,54.019,136.433,54.019z"/>
						</g>
						<path style="fill:#FFFFFF;" d="M144.142,61.817c1.679,1.783,3.692,2.617,4.499,1.862c0.805-0.76,0.099-2.821-1.585-4.609
							c-1.679-1.784-3.692-2.62-4.5-1.862C141.748,57.968,142.458,60.031,144.142,61.817z"/>
					</g>
				</g>
				<path style="opacity:0.6;fill:#2F3237;" d="M141.401,69.934c-8.939-2.608-18.615-4.442-27.949-4.479
					C100.279,65.4,85.529,67.898,74.104,75.2c-2.032,4.986-3.17,10.432-3.17,16.151c0,23.673,19.188,32.926,42.864,32.926
					c23.675,0,42.87-9.253,42.87-32.926c0-6.188-1.338-12.052-3.696-17.365C149.2,72.342,145.248,71.056,141.401,69.934z"/>
				<g>
					<path style="fill:#53575E;" d="M182.299,139.24c0-37.829-30.667-68.496-68.5-68.496c-37.828,0-68.495,30.667-68.495,68.496
						c0,37.833,30.667,52.615,68.495,52.615C151.632,191.855,182.299,177.073,182.299,139.24z"/>
					<path style="fill:#303338;" d="M113.799,192.967c-44.236,0-69.607-19.583-69.607-53.727c0-38.382,31.226-69.605,69.607-69.605
						c38.384,0,69.61,31.224,69.61,69.605C183.409,173.384,158.037,192.967,113.799,192.967z M113.799,71.855
						c-37.156,0-67.384,30.229-67.384,67.385c0,32.733,24.561,51.504,67.384,51.504c42.825,0,67.389-18.771,67.389-51.504
						C181.188,102.085,150.956,71.855,113.799,71.855z"/>
				</g>
				<path style="opacity:0.5;fill:#53575E;" d="M113.799,70.744c-37.828,0-68.495,30.667-68.495,68.496
					c0,37.833,30.667,52.615,68.495,52.615c37.833,0,68.5-14.782,68.5-52.615C182.299,101.411,151.632,70.744,113.799,70.744z
					 M132.648,98.287c-18.827-3.137-50.445,2.414-58.935,4.922c-8.492,2.509-12.525,1.35-9.123-6.609
					c3.406-7.965,16.366-14.158,16.366-14.158C123.819,62.495,151.477,101.423,132.648,98.287z"/>
				<path style="opacity:0.5;fill:#53575E;" d="M165.532,94.374c0.57,1.375,1.056,2.771,1.342,4.226
					c0.82,4.176-2.016,8.039-6.39,7.981c-7.039-0.094-13.672-3.516-20.599-4.596c-11.871-1.849-23.929-1.779-35.844-0.305
					c-12.074,1.492-22.837,5.839-34.588,8.531c-3.453,0.791-10.281,3.257-12.45-1.087c-1.57-3.151,0.487-7.795,1.884-10.838
					c-8.531,11.425-13.584,25.6-13.584,40.953c0,37.833,30.667,52.615,68.495,52.615c37.833,0,68.5-14.782,68.5-52.615
					C182.299,122.075,175.966,106.394,165.532,94.374z"/>
				<path style="fill:#53575E;" d="M67.182,98.767c0,0,9.722-21.438,46.617-19.338C113.799,79.429,86.52,76.816,67.182,98.767z"/>
			</g>
			<g>
				<g>
					<path style="fill:#DF2227;" d="M191.439,164.304c0,42.879-34.76,77.64-77.641,77.64c-42.88,0-77.639-34.761-77.639-77.64
						c0-42.88,34.759-59.637,77.639-59.637C156.68,104.667,191.439,121.424,191.439,164.304z"/>
					<path style="fill:#6B1F07;" d="M113.799,243.053c-43.423,0-78.749-35.325-78.749-78.749c0-38.607,28.704-60.748,78.749-60.748
						c50.051,0,78.752,22.141,78.752,60.748C192.551,207.728,157.224,243.053,113.799,243.053z M113.799,105.778
						c-48.633,0-76.527,21.331-76.527,58.525c0,42.197,34.331,76.526,76.527,76.526c42.198,0,76.528-34.329,76.528-76.526
						C190.327,127.109,162.434,105.778,113.799,105.778z"/>
				</g>
				<path style="fill:#5F0000;" d="M111.34,107.182c0,0-6.36,62.148,0,122.836C111.34,230.018,113.726,147.333,111.34,107.182z"/>
				<path style="fill:#17191E;" d="M78.748,178.03c0,9.235-7.486,16.722-16.724,16.722c-9.233,0-16.721-7.486-16.721-16.722
					c0-9.238,7.487-16.726,16.721-16.726C71.262,161.305,78.748,168.792,78.748,178.03z"/>
				<path style="fill:#17191E;" d="M97.517,135.408c0,5.195-4.211,9.405-9.406,9.405c-5.196,0-9.408-4.21-9.408-9.405
					s4.212-9.407,9.408-9.407C93.306,126.001,97.517,130.213,97.517,135.408z"/>
				<path style="fill:#17191E;" d="M104.47,218.429c0,5.956-4.829,10.786-10.785,10.786c-5.956,0-10.783-4.83-10.783-10.786
					c0-5.958,4.827-10.783,10.783-10.783C99.641,207.645,104.47,212.471,104.47,218.429z"/>
				<g>
					<path style="fill:#17191E;" d="M145.11,178.03c0,9.235,7.486,16.722,16.724,16.722c9.236,0,16.724-7.486,16.724-16.722
						c0-9.238-7.487-16.726-16.724-16.726C152.597,161.305,145.11,168.792,145.11,178.03z"/>
					<path style="fill:#17191E;" d="M126.341,135.408c0,5.195,4.212,9.405,9.409,9.405c5.195,0,9.406-4.21,9.406-9.405
						s-4.211-9.407-9.406-9.407C130.553,126.001,126.341,130.213,126.341,135.408z"/>
					<path style="fill:#17191E;" d="M119.39,218.429c0,5.956,4.827,10.786,10.784,10.786c5.959,0,10.785-4.83,10.785-10.786
						c0-5.958-4.826-10.783-10.785-10.783C124.217,207.645,119.39,212.471,119.39,218.429z"/>
				</g>
				<path style="opacity:0.5;fill:#B21A02;" d="M113.799,104.667c-42.88,0-77.639,16.757-77.639,59.637
					c0,42.879,34.759,77.64,77.639,77.64c42.881,0,77.641-34.761,77.641-77.64C191.439,121.424,156.68,104.667,113.799,104.667z
					 M100.279,214.609c-4.876,9.41-17.378,3.819-17.378,3.819c-19.431-6.432-38.366-33.084-39.76-57.124
					c-0.365-6.306,0.638-12.38,3.217-18.142c3.394-7.599,8.566-14.092,15.221-18.671c3.098-2.131,6.519-3.85,10.232-5.069
					c7.217-2.369,16.663-7.034,24.066-2.921c6.387,3.553,7.13,12.248,8.058,18.676c0.671,4.665,0.476,9.254,0.534,13.935
					C104.47,149.112,105.157,205.204,100.279,214.609z M139.86,218.429c0,0-12.503,5.591-17.381-3.819
					c-4.879-9.405-4.189-65.489-4.189-65.489c0.057-4.688-0.138-9.277,0.534-13.942c0.927-6.428,1.671-15.123,8.06-18.676
					c7.405-4.113,16.849,0.552,24.063,2.921c3.713,1.22,7.135,2.938,10.234,5.069c6.655,4.579,11.825,11.072,15.223,18.671
					c2.574,5.762,3.58,11.836,3.212,18.142C178.222,185.345,159.287,211.997,139.86,218.429z"/>
				<path style="fill:#B21A02;" d="M171.882,206.561c-14.834,14.729-35.429,24.445-56.455,25.217
					c-21.845,0.797-41.791-9.165-57.58-23.826c-7.515-6.975-14.556-15.385-19.35-24.707c8.458,33.722,38.958,58.698,75.302,58.698
					c42.881,0,77.641-34.761,77.641-77.64c0-0.347-0.023-0.674-0.025-1.015C190.185,179.44,184.026,194.498,171.882,206.561z"/>
				<path style="opacity:0.4;fill:#FFFFFF;" d="M64.31,126.001c0,0-19.006,11.612-19.006,31.819
					c0,20.21,16.393,41.941,23.445,47.494c0,0-19.813-29.071-19.566-46.188C49.431,142.011,56.805,132.578,64.31,126.001z"/>
				<path style="opacity:0.4;fill:#FFFFFF;" d="M157.013,126.001c0,0,19.006,11.612,19.006,31.819
					c0,20.21-16.394,41.941-23.449,47.494c0,0,19.815-29.071,19.569-46.188C171.891,142.011,164.517,132.578,157.013,126.001z"/>
			</g>
		</g>
	</g>
</g>
</svg>
